<?xml version="1.0" standalone="no"?>
<!DOCTYPE svg PUBLIC "-//W3C//DTD SVG 1.1//EN" "http://www.w3.org/Graphics/SVG/1.1/DTD/svg11.dtd">
<svg width="100%" height="100%" viewBox="0 0 251 252" version="1.1" xmlns="http://www.w3.org/2000/svg" xmlns:xlink="http://www.w3.org/1999/xlink" xml:space="preserve" style="fill-rule:evenodd;clip-rule:evenodd;stroke-miterlimit:1.41421;">
    <g transform="matrix(1,0,0,1,-319.537,-689.354)">
        <g id="DM" transform="matrix(1,0,0,1,1,5.23074)">
            <g transform="matrix(1,0,0,1,-1,-5.23074)">
                <path d="M368,821C368,821 366.57,821.701 366,820C365.07,817.226 362.451,818.183 363,817.455C364.137,815.945 363.008,816.544 363,815C362.992,813.456 364.081,815.654 366,816.364C367.919,817.073 367.319,817.698 369,819C373.985,822.861 368.079,818.706 368,821ZM360.955,818.881C360.758,818.416 359.857,816.736 357,816.364C353.676,815.93 354.058,819.008 356,821C357.942,822.992 360.584,822.375 362,824C363.416,825.625 362.45,822.509 364,824C365.55,825.491 366,825 366,825C366,825 366.445,825.203 366,824C365.35,822.242 365.263,821.74 367,824C367.746,824.971 367.797,823.522 367,822C366.203,820.478 364.332,821.59 364,820C363.668,818.41 364.004,819.445 362,818C360.268,816.751 360.783,818.408 360.955,818.881C360.987,818.957 361,819 361,819C361,819 360.981,818.955 360.955,818.881ZM362,816C362,816 359.214,817.455 358,815C356.786,812.545 358.758,812.944 360,813C362.782,813.126 362,816 362,816ZM394,813L393,814L392,814C392,814 391.998,813.195 391,814C390.002,814.805 386.881,812.658 386,813C385.119,813.342 386,815 386,815C386,815 385.202,814.771 383,813C380.798,811.229 379.106,811.536 377,809C374.894,806.464 376.216,810.943 373,806C371.498,803.691 376,802 376,802L383,801L394,813ZM374,791C374,791 373.523,790.802 373,790C371.916,788.338 371.694,789.909 369,787C366.389,784.18 367,787 367,787C367,787 364.899,786.214 368,789C371.101,791.786 370.601,789.118 372,791C372.623,791.838 374,791 374,791ZM319.537,940.52L319.537,689.52C319.537,689.52 337.705,689.344 338,689.52C344.79,693.571 345.229,712.836 337,708C327.737,702.556 344.972,699.528 337,696C329.028,692.472 328.521,704.774 331,715C333.528,725.425 339,744 339,744C339,744 338.555,738.321 349,733C359.445,727.679 359.986,742.15 354,748C343.104,758.648 349,768.508 349,768.508C349,768.508 349.01,763.029 353,763C355.73,762.98 359.041,762.708 359,767C358.945,772.693 351.85,764.594 352,773C352.087,777.911 363.561,781.155 364,780C365.303,776.574 369.877,775.17 369,780C368.123,784.83 372.328,786.303 376,789C378.348,790.725 389.278,788.324 382,794C377.711,797.345 368.297,792.459 366,789C363.703,785.541 361.333,785.765 363,790C365.891,797.346 363.531,798.307 377,798C390.463,797.693 382.482,799.433 390,800C392.328,800.176 393.102,796.097 395,800C396.898,803.903 398.561,801.562 401,802C403.439,802.438 403,804 403,804C403,804 405.333,804.219 407.969,805.979L411.031,807.021C413.667,808.781 418,805 418,805C418,805 411.377,803.434 419,800C423.327,798.051 421.941,797.654 426,802C430.059,806.346 437.324,801.137 442,801C452.032,800.705 450.767,798.544 452,796C452.786,794.378 454.718,794.802 453,794C451.282,793.198 449.293,792.543 442,792C434.707,791.457 431,788 431,788C431,788 433.811,789.266 438,790C442.056,790.711 449,787 449,787C449,787 442.235,789.564 434,785C425.765,780.436 425,773 425,773C425,773 427.125,776.836 433,779C438.875,781.164 444,779 444,779C444,779 445.048,775.868 449,772C451.948,769.115 457,767 457,767C457,767 450.753,766.373 449,762.005C448.52,760.809 447.94,760.712 446,758.999C444.06,757.286 441.72,751.661 442,752C458.498,772.001 463.954,752.61 478,720C486.529,700.197 506.366,697.069 510.124,697C513.882,696.931 514.982,698.188 516,698C523.06,696.694 529.437,699.774 539,711C545.106,718.168 549.856,737.028 551,745C552.144,752.972 555.842,749.399 555,758.999C554.576,763.83 551,767 551,767C551,767 552.28,770.531 552,779C551.812,784.686 547,792 547,792C547,792 548.18,794.09 550,798C551.82,801.91 555,805 555,805C555,805 551.602,803.307 548,798C546.015,795.074 545,793 545,793C545,793 545.138,796.471 544,799C543.153,800.883 542,803 542,803C542,803 541.62,806.211 551,810C561.964,814.429 563.243,812.032 565,812C566.757,811.968 569.563,810 569.563,810L569.563,940.52L319.537,940.52Z" style="fill:rgb(231,47,34);"/>
            </g>
            <g transform="matrix(1,0,0,1,-1,-5.23074)">
                <path d="M371,777C371,777 370.838,775.014 373,773C375.162,770.986 373.242,770.201 375,768.508C376.758,766.815 375,765 375,765C375,765 374.29,764.251 375,762C375.71,759.749 373.206,760.896 373,757C372.794,753.104 369,755 369,755C369,755 372.501,754.272 372,757C371.499,759.728 374.558,762.313 373,764C371.442,765.687 371,768 371,768C371,768 370.961,763.695 369,760C368.008,758.13 366.739,758.884 365,758C362.442,756.701 360,758 360,758C360,758 362.152,757.028 363,759C363.719,760.671 367.312,758.389 368,765C368.336,768.226 370.391,767.731 369,771C367.609,774.269 371,777 371,777Z" style="fill:rgb(231,47,34);"/>
            </g>
            <g transform="matrix(1,0,0,1,-1,-5.23074)">
                <path d="M369,778C369,778 368.425,773.938 366,771C362.485,766.742 358,767 358,767L355,764C355,764 354.07,761.948 355,758C356.344,752.293 360,749 360,749C360,749 357.784,749.888 357,751C355.172,753.593 355,756 355,756C355,756 355.071,751.649 357,750C358.929,748.351 359,748 359,748C359,748 355.595,749.349 354,753C350.857,760.192 350,767 350,767L355,768C355,768 355.493,769.662 359,772C362.507,774.338 364,781 364,781L369,778Z" style="fill:rgb(231,47,34);"/>
            </g>
            <g transform="matrix(1,0,0,1,-1,-5.23074)">
                <path d="M350,724C349.958,720.99 351.903,716.104 354,720C356.91,725.407 358.437,727.125 357,728C355.563,728.875 357.467,732.423 354,731C350.533,729.577 350.042,727.01 350,724ZM370,725C370,725 368.722,722.597 370,721C371.278,719.403 369.513,714.738 370,711C370.487,707.262 368.569,706.703 370,705C371.431,703.297 372,703 372,703C372,703 374.563,707.641 375,712C375.437,716.359 374.389,714.475 375,717C375.169,717.699 373.771,719.429 373,723C371.486,730.009 370,725 370,725ZM360.963,718.051C359.393,720.196 358,721 358,721C358,721 360.027,722.251 361,727C361.973,731.749 361,734 361,734C361,734 365.597,727.937 367,724C368.403,720.063 368,716 368,716C368,716 366.611,716.715 365,716C363.606,715.381 363.876,715.085 363.974,715.016C363.991,715.005 364,715 364,715C364,715 363.989,715.005 363.974,715.016C363.775,715.138 362.48,715.976 361.037,717.949L360.963,718.051ZM355,713C355,713 351.89,710.295 352,706C352.223,697.289 353.108,705.686 355,699C355.656,696.681 358,697 358,697C358,697 357.966,699.169 360,702C363.646,707.074 358.667,708.91 358,711C357.381,712.94 355,713 355,713ZM354,748C354,748 357.624,746.216 360,742C362.376,737.784 360.452,739.016 366,737C374.69,733.842 370.06,733.571 374,726C375.292,723.518 372.232,723.438 375.781,719C378.424,715.696 374.492,706.863 373,702C371.508,697.137 371.253,693.634 374,695C378.076,697.028 374.843,691.673 379,692C383.157,692.327 382,689.52 382,689.52L375,689.52C375,689.52 366.883,693.32 370,689.52C370.306,689.147 350,689.52 350,689.52C350,689.52 346.328,692.928 346,696C344.351,711.421 341,707 341,707L343,699C343,699 345.174,695.616 343,693C340.826,690.384 343,689.52 343,689.52L326,689.52L332,737L335,734C335,734 335.554,725.278 340,725C346.874,724.571 338,744 338,744L354,748Z" style="fill:rgb(231,47,34);"/>
            </g>
            <g transform="matrix(1,0,0,1,-1,-5.23074)">
                <path d="M365,712C365,712 362.604,714.29 363,710C363.393,705.748 366.611,706.91 366,711C365.389,715.09 362.44,716.742 362,715C361.56,713.258 363.242,715.198 365,713C365.478,712.402 365,712 365,712Z" style="fill:black;"/>
            </g>
            <g transform="matrix(1,0,0,1,-1,-5.23074)">
                <path d="M346,735C346,735 347.636,732.578 345,733C343.033,733.315 345.144,732.52 343,732C340.856,731.48 342.66,730.894 343,730C344.008,727.346 340.08,727.955 342,725C343.92,722.045 346.577,719.816 347,723C347.698,728.249 350.031,723.691 350,729C349.984,731.705 352,732 352,732L348,735L346,735Z" style="fill:black;"/>
            </g>
            <g transform="matrix(1,0,0,1,-1,-5.23074)">
                <path d="M361,751C361,751 362.049,749.132 361.929,747C361.81,744.868 366.143,744.889 366.077,743C366.011,741.111 366.775,741.407 368,743C369.225,744.593 369.852,742.51 368,746C366.148,749.49 363.336,746.757 363,749C362.664,751.243 361,752 361,752C361,752 362.207,751.538 361.929,750C361.891,749.79 361,751 361,751Z" style="fill:black;"/>
            </g>
            <g transform="matrix(1,0,0,1,-1,-5.23074)">
                <path d="M360,762C360,762 361.126,762.499 361.929,761C362.298,760.311 365.459,760.775 365,762C364.8,762.532 364.607,763.2 364,763C362.301,762.441 363,764 363,764C363,764 362.182,763.882 362,763C361.818,762.118 360.681,764.147 360,763C359.319,761.853 360,762 360,762Z" style="fill:black;"/>
            </g>
            <g transform="matrix(1,0,0,1,-1,-5.23074)">
                <path d="M407,797C407,797 408.719,792.68 406,793C403.281,793.32 403.087,797.764 405,796C406.913,794.236 407,797 407,797Z" style="fill:black;"/>
            </g>
            <g transform="matrix(1,0,0,1,-1,-5.23074)">
                <path d="M538.078,860.904C538.127,860.899 538.106,860.929 538,861C537.621,861.256 537.706,861.159 538.078,860.904ZM518,855C518,855 518.067,856.405 517,857C515.933,857.595 518.12,858.55 515,859C509.197,859.837 518,855 518,855ZM514,854C514,854 511.685,854.217 511,855C510.315,855.783 509.408,856.069 508,856C506.592,855.931 506.686,857.483 504,856C501.314,854.517 504.193,855.593 505,855C506.814,853.667 514,854 514,854ZM461,854C461,854 452.917,854.693 450,851C447.083,847.307 449.656,848.025 454,850C456.273,851.033 455.77,849.946 459,852C460.957,853.245 461,854 461,854ZM450,853C450,853 448.461,853.703 448,853C446.803,851.173 447.407,852.687 444,851C440.593,849.313 440.768,850.473 438,849C435.232,847.527 436,847 436,847C436,847 437.62,848.538 441,849C444.38,849.462 444.586,849.934 447,851C449.414,852.066 450,853 450,853ZM447,843C447,843 450.587,841.372 449,843C447.413,844.628 449.217,842.352 448,843C446.783,843.648 447,843 447,843ZM437,841C437,841 438.747,838.804 441,839C443.253,839.196 444.996,841.5 447,841C449.004,840.5 449.308,841.486 448,842C446.692,842.514 446.921,841.527 445,842C444.173,842.204 443.139,839.448 440,840C438.213,840.314 437,841 437,841ZM426,829C426,829 425.063,829.954 428,832C430.937,834.046 429.234,835.71 427,835C424.766,834.29 420.359,831.947 423,829C423.415,828.537 426,829 426,829ZM421,830C421,830 418.567,828.3 421,829C422.062,829.306 421,830 421,830ZM424,828C424,828 420.653,828.44 420,827C419.347,825.56 419.503,823.201 422,825C424.497,826.799 424,828 424,828ZM471,817.455C471,817.455 469.922,816.239 470,815C470.143,812.746 469.027,813.434 470,808C470.973,802.566 470.164,807.333 471,810C471.836,812.667 471,817.455 471,817.455ZM400,809C400,809 394.468,808.579 396,807C397.218,805.744 397.107,805.092 396.029,805C394.008,804.827 396.994,804.526 394,803C390.269,801.098 385.254,802.807 388,800C390.189,797.762 391.013,800.884 395,802C397.957,802.827 404.128,804.863 405,807C405.872,809.137 406.008,810.107 403,810C400.788,809.921 399.058,806.89 400,809ZM424,802C424,802 424.653,803.467 423,803C419.507,802.013 420.156,804.985 417,805C413.844,805.015 412.714,805.009 412,802C411.286,798.991 415.648,796.755 419,797C425.472,797.473 419.225,798.764 424,800C426.709,800.701 425.379,802.858 424,802ZM364,800C364,800 363.446,801.199 363,799C362.554,796.801 361.597,799.027 360,797C356.646,792.743 356.615,796.122 355,794C353.385,791.878 352,793 352,793C352,793 353.783,796.868 350,793C346.217,789.132 339.953,786.41 346,785C352.047,783.59 356.658,786.187 363,793C364.773,794.905 361.383,793.605 364,797C365.721,799.233 364,800 364,800ZM339,787C339,787 335.437,782.024 339,777C342.563,771.976 344.216,771.283 347,776C349.784,780.717 350,780 350,780C350,780 349.632,782.378 346,781C340.039,778.738 339,787 339,787ZM331,753C331,753 330.968,754.955 332,756C333.032,757.045 333.71,765.48 331,759C329.066,754.375 331,753 331,753ZM328,754.539C328,754.539 325.604,758.534 323,748C320.396,737.466 325,724 325,724C325,724 327.612,727.261 327,733C325.824,744.025 331.557,758.835 328,754.539ZM329,734C329,734 328.881,747.012 333,751C333.926,751.897 334.488,749.019 332,745C329.512,740.981 332.636,740.72 329,734ZM538.078,860.904C537.558,860.959 529,865 529,865C529,865 526.723,864.707 526,865C525.277,865.293 525.474,865.64 526,866C526.526,866.36 527,866 527,866C527,866 526.935,866.499 526,867C525.66,867.182 525,867 525,867C525,867 525.743,867.37 526,868C526.257,868.63 526,869 526,869C526,869 525.143,866.657 520,868C517.826,868.568 517,870 517,870L497,869.202C497,869.202 492.81,866.4 490,866C487.19,865.6 487.619,866.191 482.995,863C478.372,859.809 477,863 477,863L467,857C467,857 465.972,857.146 456,855C446.028,852.854 446.803,856.414 438,850C429.197,843.586 435.244,838.027 443,838C450.756,837.973 453.167,838.175 459,844C464.833,849.825 471,851 471,851C471,851 469.995,847.234 461,843C452.005,838.766 455.35,832.907 441,836C426.65,839.093 435.811,849.614 435,849C429.751,845.023 430.193,837.906 430,838C418.005,843.846 415.023,834.408 413,828C410.977,821.592 402.341,823.048 400,818C397.659,812.952 389.85,814.125 387,808C385.498,804.773 380.218,801.18 371,803C361.782,804.82 338.872,797.703 337,793C335.128,788.297 327.515,787.606 326,783C324.485,778.394 321.807,776.85 321,775C320.193,773.15 319.537,772 319.537,772L319.537,689.52L338,689.52C338,689.52 347.04,695.598 342,707C340.403,710.613 332.328,705.741 334,704C337.75,700.094 341.284,694.631 334,695C327.334,695.337 329.504,707.36 331,717C332.496,726.64 335.309,725.656 336,734C336.691,742.344 339.45,742.024 340,748C340.964,758.466 352.288,743.99 350,738C347.712,732.01 341,742 341,742C341,742 348.973,726.011 356,734C359.734,738.245 355.789,745.637 350,753C344.211,760.363 349,769 349,769C349,769 349.242,763.483 354,763C357.535,762.641 359.086,764.582 359,767C358.821,772.017 351.182,764.652 352,773C352.654,779.679 363.016,785.039 366,793C368.894,800.721 383.81,792.097 386,796C389.058,801.451 392.292,795.741 395,796C397.708,796.259 396.355,799.752 401,800C403.724,800.146 404,802 404,802C404,802 405.849,801.103 407.987,802.989L408.013,803.011C410.151,804.897 412,804 412,804C412,804 407.55,798.43 415,796C418.472,794.868 423.114,793.729 428,799C432.886,804.271 443.369,796.536 456,799C461.495,800.072 468.728,797.401 473,797C477.272,796.599 486.77,794.178 488,795C489.23,795.822 489,796 489,796C489,796 488.678,795.93 487,796C485.322,796.07 483.193,799.967 481,802C478.807,804.033 474,806 474,806C474,806 470.015,817.333 478,829C482.658,835.806 484.509,840.298 488,842C491.491,843.702 493.749,847 493.749,847C493.749,847 490.382,845.016 487,843C483.618,840.984 481.954,839.275 479,836C476.046,832.725 474.55,828 474.55,828C474.55,828 474.565,829.429 475,832C475.435,834.571 477.055,835.271 481,840C484.945,844.729 491.014,845.912 494,850C496.986,854.088 502.036,851.94 510.124,852C518.212,852.06 525,843 525,843C525,843 522.489,842.87 521,845C519.511,847.13 518.568,847.594 517,848C515.432,848.406 513,850 513,850C513,850 512.709,849.054 516,848C519.291,846.946 519.816,844.301 521,843C522.184,841.699 524.849,841.347 524,841C523.151,840.653 521,842 521,842C521,842 521.929,840.873 524,840C526.071,839.127 527,839 527,839L528,838C528,838 525.183,838.894 522,840C518.817,841.106 516,843 516,843C516,843 516.76,841.76 519,841C521.24,840.24 521.5,838.254 524,837C526.5,835.746 527.295,835.627 530,833C532.705,830.373 531.199,828.967 533,826C534.801,823.033 535.879,827.397 537.253,818C537.995,812.925 534.852,812.469 530,805C525.148,797.531 537.02,802.046 540,803C542.98,803.954 542.58,801.113 549,805C551.211,806.339 557.256,806.813 560,808C562.744,809.187 565.66,808.142 567,809C568.34,809.858 569.563,810 569.563,810L569.563,836C569.563,836 569.085,837.429 568,838C566.915,838.571 565.282,840.63 562,845C558.718,849.37 555.419,849.781 556,851C556.581,852.219 557,851 557,851C557,851 558.168,853.308 554,854C551.212,854.463 551.467,855.403 551,856C550.533,856.597 550.579,857.806 549,857C547.421,856.194 545.553,859.072 543,859C541.231,858.95 538.92,860.329 538.078,860.904Z" style="fill:black;"/>
            </g>
            <g transform="matrix(1,0,0,1,-1,-5.23074)">
                <path d="M505,861C505,861 514.117,866.666 516,868C517.162,868.823 517.863,869.723 518,875C518.083,878.178 518,880 518,880C518,880 519.35,881.762 518,882C517.697,882.054 512.071,887.428 510.124,889C506.829,891.66 504.93,889.536 500,887C494.152,883.992 493.184,885.133 494,876C494.421,871.287 495,869 495,869L505,861Z" style="fill:black;"/>
                <clipPath id="_clip1">
                    <path d="M505,861C505,861 514.117,866.666 516,868C517.162,868.823 517.863,869.723 518,875C518.083,878.178 518,880 518,880C518,880 519.35,881.762 518,882C517.697,882.054 512.071,887.428 510.124,889C506.829,891.66 504.93,889.536 500,887C494.152,883.992 493.184,885.133 494,876C494.421,871.287 495,869 495,869L505,861Z"/>
                </clipPath>
                <g clip-path="url(#_clip1)">
                    <path d="M499,871L505,862C505,862 498.182,867.842 496,869C495.744,869.136 498.107,870.285 499,871Z" style="fill:rgb(231,47,34);"/>
                    <path d="M502,871C502,871 505.95,870.157 509,870C509.486,869.975 506.586,865.702 506,864C505.895,863.696 502.945,869.413 502,871Z" style="fill:rgb(231,47,34);"/>
                    <path d="M512,870L515,869C515,869 508.885,864.684 507,863C506.744,862.771 510.461,867.788 512,870Z" style="fill:rgb(231,47,34);"/>
                    <path d="M516,877C516,877 515.93,872.777 516,871C516.009,870.784 514.237,871.652 513,873C512.782,873.237 514.367,875.187 516,877Z" style="fill:rgb(231,47,34);"/>
                    <path d="M508,881C508,881 511.278,876.832 512,875C512.055,874.861 514.821,878.512 517,881C517.189,881.216 515.219,880.848 508,881Z" style="fill:rgb(231,47,34);"/>
                    <path d="M507,888C507,888 507.274,885.443 507,883C506.972,882.746 511.261,882.755 515,883C515.183,883.012 508.789,887.072 507,888Z" style="fill:rgb(231,47,34);"/>
                    <path d="M505,888C505,888 500.165,885.981 499,884C498.88,883.796 503.059,883.914 505,884C505.141,884.006 504.849,886.541 505,888Z" style="fill:rgb(231,47,34);"/>
                    <path d="M506,880C506,880 502.624,877.016 501,873C500.908,872.773 506.65,872.501 509,872C509.162,871.966 510,874 510,874C510,874 507.118,877.995 506,880Z" style="fill:rgb(231,47,34);"/>
                    <path d="M504,881C504,881 497.716,882.444 496,882C495.781,881.943 498.19,875.073 499,874C499.239,873.684 501.973,880.008 504,881Z" style="fill:rgb(231,47,34);"/>
                    <path d="M495,880C495,880 496.09,873.269 496,871C495.991,870.769 497.543,872.237 498,873C498.1,873.166 496.028,878.492 495,880Z" style="fill:rgb(231,47,34);"/>
                </g>
            </g>
            <g transform="matrix(1,0,0,1,-1,-5.23074)">
                <path d="M470,874C470,874 470.758,875.943 471,879C471.242,882.057 475.471,888.57 477,892C478.738,895.899 482.434,898.413 483,900C483.566,901.587 484.979,902.426 486,905C487.552,908.914 490.65,907.244 492,909C493.35,910.756 495.231,910.645 497,912C498.769,913.355 501.205,911.07 504,911C506.795,910.93 509.356,909.324 511,909C512.644,908.676 513.991,908.547 515,907C516.51,904.685 517.308,906.089 518.6,904C519.892,901.911 521.795,902.604 523,901C524.205,899.396 530.301,894.986 531,893C531.699,891.014 532.807,891.673 534,889C535.193,886.327 535,885 535,885C535,885 524.346,895.505 521,897C517.654,898.495 516.348,899.156 516,900C515.652,900.844 513.494,900.812 512,902C511.069,902.741 509.502,901.75 506,902C498.374,902.544 496.985,898.876 491,897C485.015,895.124 481.959,889.354 479,888C476.041,886.646 475.136,881.812 473,880C470.864,878.188 471,874 471,874L471,873L470,874ZM467.997,885.412C467.9,885.573 465.741,889.205 465,893C464.242,896.882 461.348,898.679 459,904C449.812,924.818 454,940.52 454,940.52L449,940.52C449,940.52 445.723,921.779 450,913C454.277,904.221 458.52,897.209 462,888C465.48,878.791 466,873 466,873L475,872C475,872 476.198,879.158 485,885.406C493.802,891.654 506.008,899.737 521,889C528.543,883.598 534,877 534,877L542,875.614C542,875.614 544.147,890.505 547,902C553.006,926.203 560.739,925.712 564,935C564.27,935.77 569.563,937 569.563,937L569.563,940.52C569.563,940.52 498.818,940.795 499,940.52C504.081,932.85 505.951,933.804 522,933C527.903,932.704 554,933 554,933L556,933C556,933 553.532,927.458 552,926C539.93,914.515 540,888 540,888C540,888 537.286,893.589 537,896C536.608,899.308 534,900 534,900C534,900 531.351,904.129 529,907C526.649,909.871 524.138,909.487 522,913C520.821,914.937 516,916 516,916C516,916 515.066,917.726 512,919C508.934,920.274 506.928,920.28 505,922C500.23,926.258 487.931,919.171 481,909C475.444,900.847 474.536,898.207 472,895C469.464,891.793 470.26,890.275 469,888C467.831,885.889 467.97,885.463 467.997,885.412L468,885.406C468,885.406 467.999,885.408 467.997,885.412Z" style="fill:black;"/>
            </g>
            <g transform="matrix(1.28571,0,0,1.28571,-138.857,-253.659)">
                <circle cx="472" cy="866" r="7" style="fill:black;"/>
            </g>
            <g transform="matrix(1.28571,0,0,1.28571,-71.8571,-249.457)">
                <circle cx="472" cy="866" r="7" style="fill:black;"/>
            </g>
            <g transform="matrix(1,0,0,1,-1,-5.23074)">
                <path d="M319.537,874L319.537,887C319.537,887 321.03,888.477 323,889C325.916,889.774 330,890 330,890C330,890 332.625,899.187 337,902C341.375,904.813 345.353,902.355 350,906C355.94,910.659 362.166,903.261 364,912C366.241,922.676 368.546,915.4 382,920C397.251,925.214 406.248,924.843 412,913C418.214,900.206 407.677,896.764 406,893C405.335,891.508 404,890 404,890C404,890 411.409,880.771 414,874C416.591,867.229 409.646,861.042 403,871C397.859,878.703 397.848,875.289 395,880C394.706,880.487 395.6,875.767 382,866C375.202,861.118 373.854,864.799 365,854C363.72,852.439 363.437,851.698 361,847C359.418,843.949 357.894,843.191 357,838C356.106,832.809 349.153,829.06 348,842C346.571,858.042 352.749,853.279 357,864C360.763,873.49 361.752,877.17 340,877C324.461,876.878 319.537,874 319.537,874Z" style="fill:black;"/>
            </g>
            <g transform="matrix(1,0,0,1,-1,-5.23074)">
                <path d="M368,826L367.046,843C367.046,843 367.026,843.292 371,845C374.265,846.403 377.934,848.067 380,849C381.828,849.825 381.783,849.823 384,849C386.89,847.927 396,844 396,844C396,844 396.066,834.857 396,832C395.871,826.41 396.256,826.726 395,826C392.196,824.379 384.572,819.216 383,818C382.02,817.242 381.994,817.305 381,818C379.548,819.015 368,826 368,826Z" style="fill:black;"/>
                <clipPath id="_clip2">
                    <path d="M368,826L367.046,843C367.046,843 367.026,843.292 371,845C374.265,846.403 377.934,848.067 380,849C381.828,849.825 381.783,849.823 384,849C386.89,847.927 396,844 396,844C396,844 396.066,834.857 396,832C395.871,826.41 396.256,826.726 395,826C392.196,824.379 384.572,819.216 383,818C382.02,817.242 381.994,817.305 381,818C379.548,819.015 368,826 368,826Z"/>
                </clipPath>
                <g clip-path="url(#_clip2)">
                    <path d="M370,830L367,844" style="fill:none;stroke-width:1px;stroke:rgb(231,47,34);"/>
                    <path d="M393,831L396,844" style="fill:none;stroke-width:1px;stroke:rgb(231,47,34);"/>
                    <path d="M396,826L393,831L382,818L370,830L368,826" style="fill:none;stroke-width:1px;stroke:rgb(231,47,34);"/>
                    <path d="M370,830L381.538,850L382,850L393,831L370,830Z" style="fill:none;stroke-width:1px;stroke:rgb(231,47,34);"/>
                </g>
            </g>
            <g transform="matrix(1,0,0,1,-1,-5.23074)">
                <path d="M487,797C487,797 487.635,790.525 487,789C486.365,787.475 484.996,785.386 485,778C485.004,770.614 482.884,765.152 483,760C483.002,759.923 488.459,757.1 491,754C496.33,747.499 496.576,746.685 500,742C508.291,730.657 509,725 509,725C509,725 513.553,729.018 523,729C523.661,728.999 525,728 525,728C525,728 526.449,728.227 528,729C529.551,729.773 531,731 531,731C531,731 530.459,742.012 532,749C533.541,755.988 538.409,767.179 537,771C535.591,774.821 533.905,781.402 533,786C531.895,791.613 529,794 529,794C529,794 527.973,796.201 528,802C528.002,802.355 526.242,804.655 525,806C523.629,807.485 522.387,808.219 521,809C520.105,809.504 517.731,812.242 514,812C510.154,811.751 509.785,810.362 509,811C508.215,811.638 506.658,812.001 502,810C500.888,809.522 498.755,807.9 498,808C496.643,808.181 496.357,806.708 495,806C493.241,805.082 491.882,805.6 492,804C492.118,802.4 491.357,803.336 489,800C487.367,797.69 487,797 487,797Z" style="fill:black;"/>
                <clipPath id="_clip3">
                    <path d="M487,797C487,797 487.635,790.525 487,789C486.365,787.475 484.996,785.386 485,778C485.004,770.614 482.884,765.152 483,760C483.002,759.923 488.459,757.1 491,754C496.33,747.499 496.576,746.685 500,742C508.291,730.657 509,725 509,725C509,725 513.553,729.018 523,729C523.661,728.999 525,728 525,728C525,728 526.449,728.227 528,729C529.551,729.773 531,731 531,731C531,731 530.459,742.012 532,749C533.541,755.988 538.409,767.179 537,771C535.591,774.821 533.905,781.402 533,786C531.895,791.613 529,794 529,794C529,794 527.973,796.201 528,802C528.002,802.355 526.242,804.655 525,806C523.629,807.485 522.387,808.219 521,809C520.105,809.504 517.731,812.242 514,812C510.154,811.751 509.785,810.362 509,811C508.215,811.638 506.658,812.001 502,810C500.888,809.522 498.755,807.9 498,808C496.643,808.181 496.357,806.708 495,806C493.241,805.082 491.882,805.6 492,804C492.118,802.4 491.357,803.336 489,800C487.367,797.69 487,797 487,797Z"/>
                </clipPath>
                <g clip-path="url(#_clip3)">
                    <path d="M497,758C497,758 499.238,756.486 502,757C504.902,757.541 506,759 506,759C506,759 504.512,760.761 501,760C498.279,759.41 497,758 497,758Z" style="fill:white;"/>
                    <path d="M530,761C530,761 528.18,762.089 525,762C521.82,761.911 519.959,761.688 521,761C522.041,760.312 523.617,758.961 526,759C528.383,759.039 530,761 530,761Z" style="fill:white;"/>
                </g>
            </g>
        </g>
    </g>
</svg>
