<?xml version="1.0" standalone="no"?>
<!DOCTYPE svg PUBLIC "-//W3C//DTD SVG 1.1//EN" "http://www.w3.org/Graphics/SVG/1.1/DTD/svg11.dtd">
<svg width="100%" height="100%" viewBox="0 0 251 251" version="1.1" xmlns="http://www.w3.org/2000/svg" xmlns:xlink="http://www.w3.org/1999/xlink" xml:space="preserve" style="fill-rule:evenodd;clip-rule:evenodd;stroke-miterlimit:1.41421;">
    <g transform="matrix(1,0,0,1,-25.7097,-113.196)">
        <g id="Grog" transform="matrix(1,0,0,1,-236,-121)">
            <g transform="matrix(1,0,0,1,200,69)">
                <path d="M90,284C90,284 114.014,231.694 119,225C120.254,223.316 116.68,214.829 124,207C125.214,205.702 124.463,177.107 136,165.298C136.224,165.069 226,165.298 226,165.298C226,165.298 231.474,168.743 237,176C242.526,183.257 242.566,200.325 242,208C241.434,215.675 241.005,218.673 243,222C246.438,227.732 248.844,237.48 247,238C232.971,241.956 235.231,249.713 239,259C240.675,263.126 234.727,267.588 231,272C230.25,272.888 231.944,281.499 231,285C230.056,288.501 219.908,285.015 219,286C212.559,292.985 211.13,303.802 212,304C223.182,306.545 235.419,307.922 252,315C258.076,317.594 260.966,317.374 263.954,317.289C269.119,317.144 276.588,315.413 283,315C293.121,314.348 306.321,323.932 312.259,333C313.106,334.295 312.259,415.298 312.259,415.298L62.259,415.298L62.259,290.298L90,284Z" style="fill:rgb(13,13,13);"/>
                <clipPath id="_clip1">
                    <path d="M90,284C90,284 114.014,231.694 119,225C120.254,223.316 116.68,214.829 124,207C125.214,205.702 124.463,177.107 136,165.298C136.224,165.069 226,165.298 226,165.298C226,165.298 231.474,168.743 237,176C242.526,183.257 242.566,200.325 242,208C241.434,215.675 241.005,218.673 243,222C246.438,227.732 248.844,237.48 247,238C232.971,241.956 235.231,249.713 239,259C240.675,263.126 234.727,267.588 231,272C230.25,272.888 231.944,281.499 231,285C230.056,288.501 219.908,285.015 219,286C212.559,292.985 211.13,303.802 212,304C223.182,306.545 235.419,307.922 252,315C258.076,317.594 260.966,317.374 263.954,317.289C269.119,317.144 276.588,315.413 283,315C293.121,314.348 306.321,323.932 312.259,333C313.106,334.295 312.259,415.298 312.259,415.298L62.259,415.298L62.259,290.298L90,284Z"/>
                </clipPath>
                <g clip-path="url(#_clip1)">
                    <path d="M220,306C220,306 227.103,310.793 231,317C234.897,323.207 234,327 234,327C234,327 236.479,326.516 239,329C241.521,331.484 242,333 242,333C242,333 247.06,337.29 252,342C256.94,346.71 263,352 263,352L272,347C272,347 264.439,342.019 260,337C255.561,331.981 253,330 253,330C253,330 251.545,327.585 250,326C248.455,324.415 246,324 246,324C246,324 245.004,321.221 243,317C240.996,312.779 240,311 240,311L231,302L220,306Z" style="fill:rgb(231,47,34);"/>
                    <path d="M212,304C212,304 216.102,307.301 222,316C227.898,324.699 228,328 228,328C228,328 229.475,327.707 231,330C232.525,332.293 233,335 233,335C233,335 235.243,339.191 242,345C248.757,350.809 254,355 254,355L256,353C256,353 247.746,347.261 243,342C238.254,336.739 236,334 236,334C236,334 235.401,332.03 234,330C232.599,327.97 232,328 232,328C232,328 230.418,321.653 224,314C217.582,306.347 216,304 216,304L214,302L212,304Z" style="fill:rgb(231,47,34);"/>
                    <path d="M256,317L258,320C258,320 258.933,318.737 262,321C265.067,323.263 265,325 265,325C265,325 266.513,326.255 273,333C279.487,339.745 280,342 280,342L286,342C286,342 286.101,339.39 292,335C297.899,330.61 302,329 302,329C302,329 298.374,329.032 295,331C291.626,332.968 288.928,332.506 287,331C285.072,329.494 285.85,328.307 289,327C292.15,325.693 294,324 294,324C294,324 286.583,327.692 284,328C281.417,328.308 280.302,326.72 279,325C277.698,323.28 280.824,321.997 284,321C287.176,320.003 289,319 289,319C289,319 284.499,320.005 282,321C279.501,321.995 278.542,323.383 276,321C273.458,318.617 272.001,317.989 275,317C277.999,316.011 278,314 278,314L256,317Z" style="fill:rgb(231,47,34);"/>
                    <path d="M229,168C229,168 235.411,174.227 236,177C236.589,179.773 235.413,181.242 237,184C238.587,186.758 240.656,186.825 241,192C241.344,197.175 240.131,216.533 242,220C243.869,223.467 246,225 246,225L245,228C245,228 244.996,232.67 243,234C241.004,235.33 238.714,237.503 237,240C235.286,242.497 233.668,247.477 234.715,252C236.824,261.115 237,264 237,264L257,234L248,174L229,168Z" style="fill:rgb(231,47,34);"/>
                    <path d="M197.979,321C197.979,321 202.224,306.234 202,303C201.958,302.392 203.418,306.566 206,307C206.73,307.123 203.955,307.073 203,309C202.045,310.927 200.121,319.65 200.011,321.307C199.991,321.601 197.979,321 197.979,321Z" style="fill:rgb(231,47,34);"/>
                    <path d="M192,321C192,321 193.999,318.136 195,314C196.001,309.864 196,307 196,307C196,307 193.708,306.56 189,305C187.939,304.649 193.421,305.493 196,305C199.312,304.367 198.791,303.657 200,302C200.242,301.668 196.292,319.487 195,321C194.411,321.69 192,321 192,321Z" style="fill:rgb(231,47,34);"/>
                    <path d="M212,165.298C212,165.298 217.755,172.567 222,187C226.964,203.876 227,210 227,210L231,217C231,217 237.8,205.627 233,186C228.2,166.373 224,165.298 224,165.298L212,165.298Z" style="fill:rgb(231,47,34);"/>
                    <path d="M178,165.298C178,165.298 179.254,171.453 190,178C200.746,184.547 203.291,183.113 207,190C210.202,195.946 210.982,199.147 211,204C211.018,208.853 211,211 211,211L202,202C202,202 205.818,206.398 209,213C212.182,219.602 213,222 213,222C213,222 213.987,199.272 213,191.149C212.013,183.026 206,171 206,171L205,181C205,181 199.056,179.51 193,174C186.944,168.49 186,165.298 186,165.298L178,165.298Z" style="fill:rgb(231,47,34);"/>
                    <path id="Eye Tattoo 1" d="M142,165.298C142,165.298 136.217,169.27 134,175C131.783,180.73 131.476,185.663 133,190C133.314,190.893 131.645,184.173 139,176C145.046,169.282 144,171 144,171C144,171 145.285,185.176 154,195C162.715,204.824 167.319,206.761 173,209C178.681,211.239 184,215 184,215C184,215 183.351,213.092 183,208C182.649,202.908 184,202 184,202C184,202 193.701,214.956 194.438,221C195.176,227.044 194.346,230.311 193,233C191.654,235.689 185.006,241.638 179,245C172.994,248.362 168,254 168,254C168,254 173.528,258.954 176,269C178.472,279.046 179,280 179,280C179,280 179.959,275.151 178,266C176.041,256.849 176,256 176,256C176,256 179.129,250.215 187.259,246C195.388,241.785 199.9,239.43 201,233C202.1,226.57 199.905,210.803 191,201C182.095,191.197 167,178 167,178C167,178 171.969,183.023 174,189C176.031,194.977 176,196 176,196C176,196 164.53,196.654 156,181C147.47,165.346 148,165.298 148,165.298L142,165.298Z" style="fill:rgb(231,47,34);"/>
                    <path d="M237,242C237,242 232.287,241.868 231,242C229.713,242.132 229.051,244.116 229,245C228.949,245.884 232.522,244.501 236,244C236.119,243.983 235.984,243.114 237,242Z" style="fill:none;stroke-width:3px;stroke:rgb(13,13,13);"/>
                    <path d="M237,242C237,242 232.287,241.868 231,242C229.713,242.132 229.051,244.116 229,245C228.949,245.884 232.522,244.501 236,244C236.119,243.983 235.984,243.114 237,242Z" style="fill:white;"/>
                    <clipPath id="_clip2">
                        <path d="M237,242C237,242 232.287,241.868 231,242C229.713,242.132 229.051,244.116 229,245C228.949,245.884 232.522,244.501 236,244C236.119,243.983 235.984,243.114 237,242Z"/>
                    </clipPath>
                    <g clip-path="url(#_clip2)">
                        <g transform="matrix(1.60301,0,0,1.5,-138.797,-120.5)">
                            <circle cx="229" cy="243" r="2" style="fill:rgb(231,47,34);"/>
                        </g>
                    </g>
                    <path d="M208.458,244.088L208.247,244.086L208.038,244.082L207.828,244.075L207.619,244.066L207.411,244.054L207.202,244.041L206.995,244.025L206.787,244.008L206.58,243.988L206.373,243.966L206.166,243.943L205.96,243.917L205.754,243.89L205.548,243.862L205.343,243.831L205.138,243.8L204.933,243.766L204.728,243.732L204.524,243.696L204.319,243.658L204.115,243.619L203.912,243.58L203.708,243.539L203.505,243.496L203.301,243.453L203.098,243.409L202.895,243.364L202.693,243.318L202.487,243.27L202.085,243.175L201.68,243.076L201.275,242.975L200.871,242.871L200.467,242.766L200.063,242.659L199.658,242.551L198.852,242.334L198.042,242.116L197.639,242.008L197.23,241.9L196.804,241.786L196.353,241.666L195.885,241.539L195.401,241.407L194.903,241.271L194.394,241.13L193.877,240.985L193.352,240.837L192.824,240.687L192.293,240.534L191.762,240.38L191.234,240.224L190.711,240.068L190.194,239.913L189.686,239.757L189.19,239.603L188.706,239.45L188.24,239.299L188.01,239.224L187.787,239.149L187.568,239.076L187.354,239.002L187.144,238.93L186.94,238.858L186.741,238.787L186.548,238.716L186.36,238.646L186.176,238.576L185.998,238.506L185.825,238.436L185.656,238.366L185.49,238.294L185.327,238.221L185.165,238.145L185.002,238.064L184.847,237.982L184.752,237.929L184.663,237.877L184.571,237.82L184.473,237.758L184.37,237.687L184.258,237.605L184.137,237.509L184.004,237.394L183.856,237.251L183.692,237.07L183.512,236.836L183.321,236.528L183.137,236.124L183.013,235.678L182.964,235.307L182.955,234.983L182.982,234.646L183.049,234.306L183.153,233.977L183.289,233.672L183.449,233.395L183.662,233.1L183.973,232.775L184.262,232.552L184.423,232.447L184.517,232.389L184.611,232.334L184.703,232.283L184.794,232.236L184.884,232.191L184.973,232.148L185.073,232.103L185.233,232.036L185.403,231.971L185.571,231.912L185.736,231.86L185.9,231.812L186.062,231.768L186.224,231.729L186.386,231.692L186.548,231.659L186.71,231.628L186.872,231.599L187.036,231.573L187.2,231.549L187.365,231.527L187.532,231.507L187.699,231.488L187.868,231.471L188.039,231.456L188.211,231.442L188.385,231.429L188.56,231.418L188.737,231.408L188.916,231.399L189.096,231.391L189.278,231.384L189.462,231.379L189.647,231.374L189.834,231.371L190.023,231.368L190.213,231.367L190.404,231.366L190.597,231.367L190.792,231.368L190.988,231.37L191.185,231.373L191.387,231.377L191.785,231.387L192.191,231.4L192.602,231.416L193.016,231.435L193.433,231.457L193.854,231.481L194.277,231.508L194.702,231.537L195.128,231.568L195.555,231.601L195.982,231.636L196.409,231.672L196.836,231.711L197.261,231.75L197.684,231.792L198.104,231.834L198.522,231.878L198.936,231.922L199.346,231.968L199.751,232.014L200.151,232.062L200.546,232.109L200.933,232.157L201.314,232.206L201.688,232.254L202.053,232.303L202.41,232.352L202.758,232.4L203.096,232.448L203.424,232.496L203.741,232.544L204.047,232.59L204.341,232.637L204.623,232.682L204.893,232.727L205.15,232.77L205.394,232.813L205.625,232.855L205.843,232.896L206.048,232.936L206.241,232.976L206.425,233.016L206.603,233.058L206.777,233.102L206.903,233.138L207.027,233.176L207.148,233.217L207.267,233.261L207.382,233.307L207.495,233.354L207.604,233.404L207.711,233.455L207.816,233.508L207.919,233.562L208.019,233.617L208.116,233.674L208.211,233.731L208.304,233.79L208.394,233.849L208.483,233.91L208.57,233.971L208.654,234.032L208.738,234.095L208.819,234.158L208.898,234.221L208.976,234.285L209.052,234.35L209.134,234.42L209.273,234.545L209.413,234.677L209.549,234.81L209.68,234.945L209.807,235.08L209.93,235.216L210.049,235.352L210.165,235.489L210.277,235.626L210.387,235.764L210.493,235.901L210.597,236.039L210.697,236.176L210.796,236.313L210.891,236.449L210.984,236.585L211.075,236.721L211.163,236.855L211.249,236.989L211.333,237.121L211.414,237.252L211.493,237.382L211.569,237.51L211.644,237.637L211.716,237.761L211.786,237.884L211.853,238.005L211.921,238.127L212.042,238.351L212.157,238.568L212.262,238.773L212.358,238.964L212.444,239.14L212.52,239.298L212.586,239.439L212.644,239.564L212.721,239.734L213.973,242.602L213.379,243.634L210.15,244.002L209.938,244.023L209.725,244.041L209.513,244.056L209.302,244.068L209.09,244.077L208.879,244.083L208.668,244.087L208.458,244.088Z" style="fill:rgb(13,13,13);"/>
                    <path d="M210,241C210,241 208.103,236.563 206,236C203.897,235.437 188.494,233.325 186,235C185.301,235.47 193.6,237.838 198,239C202.4,240.162 206.423,241.436 210,241Z" style="fill:white;"/>
                    <clipPath id="_clip3">
                        <path d="M210,241C210,241 208.103,236.563 206,236C203.897,235.437 188.494,233.325 186,235C185.301,235.47 193.6,237.838 198,239C202.4,240.162 206.423,241.436 210,241Z"/>
                    </clipPath>
                    <g clip-path="url(#_clip3)">
                        <circle cx="194.5" cy="236.5" r="3.5" style="fill:rgb(231,47,34);"/>
                    </g>
                </g>
            </g>
            <g transform="matrix(1,0,0,1,200,69)">
                <path d="M62.259,301C62.259,301 78.961,296.663 88,296C97.039,295.337 100.928,296.249 104,297C105.113,297.272 106.824,295.639 111,296C115.176,296.361 116.021,302.947 118,305C119.979,307.053 129.937,313.461 132,318C134.063,322.539 139.992,335.899 143,344C146.008,352.101 147.806,369.867 148,375C148.036,375.944 154.279,379.961 156,382C156.467,382.554 154,384 154,384C154,384 154.804,386.701 154,389C153.196,391.299 152.07,392.347 152,394C151.93,395.653 149.315,394.521 148,396C146.685,397.479 141.203,403.794 140,406C139.534,406.855 132,407 132,407L122,415.298L142,415.298C142,415.298 139.136,411.149 140,410C140.864,408.851 142.228,412.032 148,413C153.772,413.968 143.806,412.205 143,409C142.733,407.94 148.846,411.33 153,412C154.288,412.208 158.331,414.905 161,415.298C163.669,415.692 152.049,407.623 153,403C153.951,398.377 154.181,394.962 155,393C155.479,391.852 155.188,394.666 160,398C164.812,401.334 156.479,395.601 158,391C158.339,389.973 160,390 160,390C160,390 159.233,384.56 160,381C160.767,377.44 163.822,377.016 165,377C166.178,376.984 169.235,376.707 172,382C174.765,387.293 172.139,374.4 167,370C166.27,369.375 169.893,368.61 177,374C184.107,379.39 173.718,370.978 172,365C170.282,359.022 169.065,355.538 165,352C164.316,351.405 170.914,351.788 174,356C177.086,360.212 168.906,347.823 165,346C164.021,345.543 172.293,348.157 176,351C179.707,353.843 168.058,343.719 164,341C163.207,340.469 167.364,340.881 171,342C174.636,343.119 166.556,339.7 163,336C159.444,332.3 158.381,331.735 159,330C159.246,329.311 160.354,327.979 169,330C177.646,332.021 160.961,328.376 158,325C155.039,321.624 151.866,316.182 150,314C148.134,311.818 147,311 147,311C147,311 153.159,310.84 158,315C162.841,319.16 152.906,307.33 147,307C145.9,306.939 148.723,305.124 154,307C159.277,308.876 148.894,302.366 140,304C139.052,304.174 138.34,301.158 145,297C151.66,292.842 137.212,299.102 135,304C134.55,304.996 132.444,290.084 135,285C137.556,279.916 129.91,290.692 129,294C128.745,294.925 126.61,286.904 126,284C125.39,281.096 124.834,291.114 125,293C125.081,293.926 122.019,288.849 120,287C117.981,285.151 115.609,278.774 116,270C116.049,268.905 106.462,280.448 110,290.298C110.427,291.486 100.251,282.626 100,279C99.749,275.374 99,285 99,285C99,285 96.699,278.83 98,274C98.369,272.631 93.977,280.523 95,287C95.148,287.938 89.357,283.103 87,282C84.643,280.897 83.779,272.307 84,271C84.221,269.693 80.802,278.877 81,283C81.046,283.955 74.381,267.47 76,262C76.343,260.841 67.849,277.09 69,283C69.247,284.267 63.494,279.672 62.259,275C61.023,270.328 62.259,301 62.259,301Z" style="fill:rgb(231,47,34);"/>
            </g>
            <g transform="matrix(1.36842,0,0,1.07692,137,40.1538)">
                <path d="M161.5,375C166.743,375 171,380.825 171,388C171,395.175 166.743,401 161.5,401C156.257,401 152,395.175 152,388C152,380.825 156.257,375 161.5,375ZM161.5,379.093C165.092,379.093 168.009,383.084 168.009,388C168.009,392.916 165.092,396.907 161.5,396.907C157.908,396.907 154.991,392.916 154.991,388C154.991,383.084 157.908,379.093 161.5,379.093Z" style="fill:rgb(13,13,13);"/>
            </g>
        </g>
    </g>
</svg>
