<?xml version="1.0" standalone="no"?>
<!DOCTYPE svg PUBLIC "-//W3C//DTD SVG 1.1//EN" "http://www.w3.org/Graphics/SVG/1.1/DTD/svg11.dtd">
<svg width="100%" height="100%" viewBox="0 0 250 251" version="1.1" xmlns="http://www.w3.org/2000/svg" xmlns:xlink="http://www.w3.org/1999/xlink" xml:space="preserve" style="fill-rule:evenodd;clip-rule:evenodd;stroke-linejoin:round;stroke-miterlimit:1.41421;">
    <g transform="matrix(1,0,0,1,-317.669,-113.237)">
        <g id="Keyleth">
            <path d="M432,363.298L561.019,363.298L557,311L436,329L432,363.298Z" style="fill:black;"/>
            <path d="M317.669,149C317.669,149 347.156,133.24 367,128C386.844,122.76 397,122 397,122L419,123C419,123 421.603,122.193 426,119C430.397,115.807 435,113.298 435,113.298L499,113.298C499,113.298 497.827,114.328 504,116C510.173,117.672 509.124,117.393 512,120C514.876,122.607 515,123 515,123C515,123 518.313,121.543 522,117C525.687,112.457 525,113.298 525,113.298L567.669,113.298L567.669,363.298L450.429,363.298C450.429,363.298 461.625,350.597 472,346C482.375,341.403 494.129,337.032 505,335C515.871,332.968 516.718,332.704 528,329C539.282,325.296 550,321 550,321C550,321 519.514,325.851 511,326C502.486,326.149 484.691,328.854 477,332C469.309,335.146 458.42,336.888 446,348C433.58,359.112 430,363.298 430,363.298L408,363.298C408,363.298 407.143,348.566 413,335C418.857,321.434 419,321 419,321L413,321C413,321 400.214,331.283 393,345C385.786,358.717 383.858,363.298 383.858,363.298L382,363.298C382,363.298 381.174,349.506 390,335C398.826,320.494 400,319 400,319C400,319 382.84,316.489 373,318C363.16,319.511 349.596,322.343 339,334C328.404,345.657 317.669,363.298 317.669,363.298L317.669,149Z" style="fill:rgb(231,47,34);"/>
            <path d="M477,283C477,283 472.368,266.79 469,264C465.632,261.21 461,262 461,262C461,262 451.842,268.477 446,269C440.158,269.523 435.313,270.15 432,264C428.687,257.85 428.702,255.823 425,249C421.298,242.177 415.73,228.865 413,226C410.27,223.135 411.311,217.292 411,217C410.689,216.708 406.016,214.03 407,210C407.984,205.97 411,205 411,205C411,205 407.71,202.344 409,200C410.29,197.656 400.232,193.135 393,179C385.768,164.865 383.195,160.772 384,158C384.805,155.228 387.803,158.88 393,162C398.197,165.12 404,168 404,168C404,168 403.109,155.753 404,152C404.891,148.247 405.197,142.207 407,141C408.803,139.793 409,141 409,141C409,141 408.776,137.187 409,135C409.224,132.813 410,130 410,130C410,130 410.345,139.351 413,142C415.655,144.649 419.11,146.33 423,152C426.89,157.67 428,161 428,161C428,161 452.838,145.753 461,143C469.162,140.247 468.273,139.625 476,137C483.727,134.375 479.645,136.267 487,134C494.355,131.733 502,126 502,126L493,135C493,135 500.262,134.517 503,138C505.738,141.483 503.527,151.924 502,157C500.473,162.076 498,169 498,169C498,169 499.619,176.997 505,181C510.381,185.003 517,191 517,191C517,191 506.773,186.644 504,185C501.227,183.356 498,183 498,183C498,183 500.188,188.7 502,194C503.812,199.3 503.099,207.66 504,211C504.901,214.34 512,230 512,230C512,230 528.262,251.575 528,252C520.464,264.237 512.17,274.532 508,276C504.726,277.153 477,283 477,283Z" style="fill:black;"/>
            <clipPath id="_clip1">
                <path d="M477,283C477,283 472.368,266.79 469,264C465.632,261.21 461,262 461,262C461,262 451.842,268.477 446,269C440.158,269.523 435.313,270.15 432,264C428.687,257.85 428.702,255.823 425,249C421.298,242.177 415.73,228.865 413,226C410.27,223.135 411.311,217.292 411,217C410.689,216.708 406.016,214.03 407,210C407.984,205.97 411,205 411,205C411,205 407.71,202.344 409,200C410.29,197.656 400.232,193.135 393,179C385.768,164.865 383.195,160.772 384,158C384.805,155.228 387.803,158.88 393,162C398.197,165.12 404,168 404,168C404,168 403.109,155.753 404,152C404.891,148.247 405.197,142.207 407,141C408.803,139.793 409,141 409,141C409,141 408.776,137.187 409,135C409.224,132.813 410,130 410,130C410,130 410.345,139.351 413,142C415.655,144.649 419.11,146.33 423,152C426.89,157.67 428,161 428,161C428,161 452.838,145.753 461,143C469.162,140.247 468.273,139.625 476,137C483.727,134.375 479.645,136.267 487,134C494.355,131.733 502,126 502,126L493,135C493,135 500.262,134.517 503,138C505.738,141.483 503.527,151.924 502,157C500.473,162.076 498,169 498,169C498,169 499.619,176.997 505,181C510.381,185.003 517,191 517,191C517,191 506.773,186.644 504,185C501.227,183.356 498,183 498,183C498,183 500.188,188.7 502,194C503.812,199.3 503.099,207.66 504,211C504.901,214.34 512,230 512,230C512,230 528.262,251.575 528,252C520.464,264.237 512.17,274.532 508,276C504.726,277.153 477,283 477,283Z"/>
            </clipPath>
            <g clip-path="url(#_clip1)">
                <path d="M423,204.399C423,204.399 420.501,199.236 418,199C415.499,198.764 412,201.632 412,201.632C412,201.632 415.295,205.161 417,206C418.705,206.839 422,207.167 422,207.167L423,204.399Z" style="fill:white;"/>
                <clipPath id="_clip2">
                    <path d="M423,204.399C423,204.399 420.501,199.236 418,199C415.499,198.764 412,201.632 412,201.632C412,201.632 415.295,205.161 417,206C418.705,206.839 422,207.167 422,207.167L423,204.399Z"/>
                </clipPath>
                <g clip-path="url(#_clip2)">
                    <g transform="matrix(1,0,0,1,-1,0)">
                        <circle cx="423" cy="202" r="4" style="fill:rgb(231,47,34);"/>
                    </g>
                </g>
                <path d="M444,207C444,207 447.974,202.355 449,202C450.026,201.645 456.708,201.39 461,202C465.292,202.61 471,204 471,204C471,204 466.083,206.625 460,207C453.917,207.375 444,207 444,207Z" style="fill:white;"/>
                <clipPath id="_clip3">
                    <path d="M444,207C444,207 447.974,202.355 449,202C450.026,201.645 456.708,201.39 461,202C465.292,202.61 471,204 471,204C471,204 466.083,206.625 460,207C453.917,207.375 444,207 444,207Z"/>
                </clipPath>
                <g clip-path="url(#_clip3)">
                    <g transform="matrix(1,0,0,1,0,-1)">
                        <circle cx="460" cy="204" r="5" style="fill:rgb(231,47,34);"/>
                    </g>
                </g>
                <path d="M407,166C407,166 407.862,153.678 411,155C414.138,156.322 418,159 418,159C418,159 412.101,157.603 411,159C409.899,160.397 407,166 407,166Z" style="fill:rgb(231,47,34);"/>
                <path d="M405,160C405,160 404.642,145.448 409,147C413.358,148.552 426,162 426,162C426,162 410.185,146.835 409,150C407.815,153.165 405,160 405,160Z" style="fill:rgb(231,47,34);"/>
                <path d="M443,159C443,159 457.868,154.208 470,154C482.132,153.792 482.533,153.778 486,156C489.467,158.222 491,166 491,166L490,166C490,166 487.06,162.163 485,160C482.94,157.837 481,157 481,157C481,157 483.72,159.775 485,164C486.28,168.225 487.751,172.6 485,173C482.249,173.4 481.114,173.581 479,172C476.886,170.419 466.145,159.445 464,159C461.855,158.555 459.159,157.822 455,158C450.841,158.178 443,159 443,159Z" style="fill:rgb(231,47,34);"/>
                <path d="M494,161C494,161 491.499,157.001 490,154C488.501,150.999 487.478,148.3 486,148C484.522,147.7 468.758,147.864 460,150C451.242,152.136 442,156 442,156C442,156 455.682,148.231 462,146C468.318,143.769 481.784,139.672 488,140C494.216,140.328 499.165,143.408 499,149C498.835,154.592 494,161 494,161Z" style="fill:rgb(231,47,34);"/>
            </g>
            <path d="M527,200C527,200 537.745,186.953 546,178C554.255,169.047 560.856,160.087 561,159C561.144,157.913 560.493,155.844 558,157C555.507,158.156 545.849,161.678 543,163C540.151,164.322 538.163,164.802 538,165C537.837,165.198 537,166 537,166L535,166L535,167L533,167L533,168L531,168L531,169L529,169C529,169 528.818,171.695 527,172C525.182,172.305 526,175 526,175C526,175 524.374,179.737 523,180C521.626,180.263 522.115,185.56 523,187C523.885,188.44 526.142,192.194 525,194C523.858,195.806 519.416,197.714 518,198C516.584,198.286 522.125,197.662 524,199C525.875,200.338 526,201 526,201L527,200Z" style="fill:black;"/>
            <path d="M407,141C407,141 407.645,139.731 407,139C406.355,138.269 405.904,136.818 405,137C404.096,137.182 405.074,136.467 404,136C402.926,135.533 402,136 402,136C402,136 403.06,131.432 403,130C402.94,128.568 403,128 403,128C403,128 398.747,124.408 396,121C393.253,117.592 391,113.298 391,113.298L400,113.298C400,113.298 401.304,115.568 403,117C404.696,118.432 406,119 406,119L409,119C409,119 411.241,117.785 412,116C412.759,114.215 413,113.298 413,113.298L424,113.298C424,113.298 422.511,116.131 421,119C419.489,121.869 417.725,123.766 416,126C414.275,128.234 411.595,132.673 411,135C410.405,137.327 409,141 409,141L407,141Z" style="fill:black;"/>
            <path d="M532,137C532,137 539.466,129.025 542,126C544.534,122.975 546,120 546,120L546,113.298L554,113.298L554,118C554,118 554.868,119.43 559,117C563.132,114.57 565,113.298 565,113.298L567.669,113.298L567.669,121C567.669,121 563.804,123.948 561,125C558.196,126.052 553.438,129.461 551,133C548.562,136.539 543,144 543,144C543,144 545.831,145.146 550,145C554.169,144.854 558.53,144.518 562,142C565.47,139.482 567.669,138 567.669,138L567.669,144C567.669,144 563.334,148.753 560,150C556.666,151.247 545,154 545,154C545,154 544.591,152.683 544,152C543.409,151.317 542.585,147.372 541,147C539.415,146.628 539,145 539,145C539,145 537.27,143.86 536,144C534.73,144.14 535,143 535,143C535,143 535.409,142.011 536,140C536.591,137.989 534.52,139.459 533,139C531.48,138.541 532,137 532,137Z" style="fill:black;"/>
        </g>
    </g>
</svg>
