<?xml version="1.0" standalone="no"?>
<!DOCTYPE svg PUBLIC "-//W3C//DTD SVG 1.1//EN" "http://www.w3.org/Graphics/SVG/1.1/DTD/svg11.dtd">
<svg width="100%" height="100%" viewBox="0 0 250 250" version="1.1" xmlns="http://www.w3.org/2000/svg" xmlns:xlink="http://www.w3.org/1999/xlink" xml:space="preserve" style="fill-rule:evenodd;clip-rule:evenodd;stroke-miterlimit:1.41421;">
    <g transform="matrix(1,0,0,1,-24.2833,-399.082)">
        <g id="Percy" transform="matrix(1,0,0,1,-11,-12)">
            <g transform="matrix(1,0,0,1,11,12)">
                <path d="M146,542C146,542 128.166,546.364 117,552C105.834,557.636 95,562 95,562C95,562 82.451,562.773 80,563C77.549,563.227 73,565 73,565L80,575C80,575 91.753,580.855 97,584C102.247,587.145 109,591 109,591C109,591 96.752,603.816 97,606C97.248,608.184 100,616 100,616C100,616 86.288,623.065 82,625C77.712,626.935 74,629 74,629L41.016,642L24.283,648.179L24.283,649.082L274.283,649.082L274.283,581C274.283,581 270.914,577.676 269,577C267.086,576.324 266.647,576.832 266,576C264.833,574.5 263.211,569.819 262,568C260.789,566.181 260,565 260,565C260,565 262.197,550.442 263,546C263.803,541.558 265.629,535.739 264,531C262.167,525.667 256.667,517.583 252,514C247.606,510.626 236,509.5 236,509.5L146,542Z" style="fill:black;"/>
            </g>
            <g transform="matrix(1,0,0,1,11,12)">
                <path d="M121,649.082C121,649.082 121.256,631.906 124,628C126.744,624.094 142,610 142,610C142,610 137.792,605.997 137,605C136.208,604.003 136,603 136,603C136,603 140.799,604.856 143,605C145.201,605.144 147,605 147,605L160,593L176,590L196,593C196,593 196.465,596.131 197,598C197.535,599.869 198,601 198,601C198,601 204.224,599.918 206,599C207.776,598.082 209,597 209,597L228,613C228,613 215.754,617.36 213,619C210.246,620.64 205.167,622.495 202,622C198.833,621.505 198,622 198,622C198,622 196.961,633.153 196,638C195.039,642.847 194,649.082 194,649.082L121,649.082Z" style="fill:rgb(231,47,34);"/>
            </g>
            <g transform="matrix(1,0,0,1,11,12)">
                <path d="M234,517L235,519L235,513L236,514L236,508L237,509.5L237,506L238,506L238,503C238,503 242.659,498.867 244,497C245.341,495.133 246.008,491 246.008,491C246.008,491 246.909,490.956 248,493C249.091,495.044 250,496 250,496L251,480C251,480 252.007,480.757 254,482.5C255.993,484.243 257,486 257,486C257,486 257.791,477.169 257,475C256.209,472.831 253,467 253,467C253,467 255.117,467.978 256,469C256.883,470.022 258,471 258,471C258,471 256.667,466.931 256,466C255.333,465.069 251,462 251,462C251,462 253.561,461.4 255,460.5C256.439,459.6 260,457 260,457C260,457 255.364,455.46 253,454C250.636,452.54 249,451 249,451C249,451 248.728,440.668 248,438C247.272,435.332 246.008,433 246.008,433C246.008,433 247.275,432.36 251,433C254.725,433.64 257,435 257,435C257,435 249.217,427.712 247,427C244.783,426.288 243,426 243,426C243,426 247.156,425.069 249,425C250.844,424.931 252,423 252,423C252,423 251.225,422.618 249,423C246.775,423.382 246.008,423 246.008,423C246.008,423 252.533,420.152 254,419C255.467,417.848 256,417 256,417C256,417 242.054,416.003 240,415C237.946,413.997 237,413 237,413L236,410C236,410 231.131,403.857 229,402C226.869,400.143 225,399.082 225,399.082L135,399.082C135,399.082 127.98,401.358 126,403C124.02,404.642 118.151,410.766 115,412C111.849,413.234 110.349,413.791 108,414C105.651,414.209 104,414 104,414C104,414 107.59,415.881 110,416C112.41,416.119 115,416 115,416C115,416 102.673,424.054 101,426C99.327,427.946 98,430 98,430C98,430 104.494,425.81 107,425C109.506,424.19 112,424 112,424C112,424 105.919,432.026 104,436C102.081,439.974 100,445 100,445C100,445 93.111,449.389 91,450C88.889,450.611 87,451 87,451C87,451 90.307,452.732 98,452C105.693,451.268 107,451 107,451C107,451 101.525,455.432 99,457C96.475,458.568 95,459 95,459C95,459 101.815,461.317 105,461C108.185,460.683 110,460.5 110,460.5C110,460.5 102.002,469.446 101,472C99.998,474.554 99,478.75 99,478.75C99,478.75 105.243,473.924 108,472C110.757,470.076 112,470 112,470C112,470 109.068,478.673 109,481C108.932,483.327 109,485 109,485C109,485 111.657,482.096 114,481C116.343,479.904 143,489 143,489L234,517Z" style="fill:rgb(231,47,34);"/>
            </g>
            <g transform="matrix(1,0,0,1,11,12)">
                <path d="M237,538C237,538 234.395,533.017 234,526C233.605,518.983 234,517 234,517C234,517 231.718,512.573 231,510C230.282,507.427 230,507 230,507C230,507 232.17,507.771 236,501C239.83,494.229 246.259,481.579 246,476C245.741,470.421 244.034,464.101 242,463C239.966,461.899 237,463 237,463C237,463 235.829,462.732 237,464C238.171,465.268 238,465 238,465L234,465C234,465 228.951,467.798 228,469C227.049,470.202 223,474 223,474C223,474 223.218,478.301 222,481C220.782,483.699 209,492 209,492C209,492 211.137,484.576 211,478C210.863,471.424 211,461 211,461C211,461 203.249,456.463 203,454C202.751,451.537 202,449 202,449C202,449 199.83,450.937 200,453C200.17,455.063 200,457 200,457C200,457 199.198,454.228 199,447C198.802,439.772 199,438 199,438C199,438 195.497,443.776 195,447C194.503,450.224 194,451 194,451C194,451 189.126,446.864 189,439C188.874,431.136 188,430 188,430L188,433C188,433 186.333,429.874 186,428C185.667,426.126 185,426 185,426C185,426 184.166,428.321 185,432C185.834,435.679 186,439 186,439C186,439 182.253,434.153 179,433C175.747,431.847 170.64,427.974 170,425C169.36,422.026 169,420 169,420C169,420 159.954,432.71 159,436C158.046,439.29 159,444 159,444C159,444 154.715,439.02 155,434C155.285,428.98 156,423 156,423C156,423 145.818,435.081 141,438C136.182,440.919 128,443 128,443C128,443 133.318,438.262 135,436C136.682,433.738 137,433 137,433C137,433 130.68,436.749 128,438C125.32,439.251 124,440 124,440C124,440 120.671,450.162 120,455C119.329,459.838 119.136,466.348 121,470C122.864,473.652 125,476 125,476L125,494C125,494 124.677,500.515 126,504C127.323,507.485 132.456,517.884 135,523C137.544,528.116 143.09,537.259 145,543C146.91,548.741 148.173,556.28 152,557C155.827,557.72 165,558 165,558C165,558 170.529,558.814 171,562C171.471,565.186 173,573 173,573C173,573 170.179,574.435 168,577C165.821,579.565 163,582 163,582C163,582 161.517,583.946 161,587C160.483,590.054 160,593 160,593L165,599C165,599 168.032,596.268 170,595C171.968,593.732 174.686,593.556 177,595C179.314,596.444 179.461,598.167 185,596C190.539,593.833 196,593 196,593C196,593 208.219,585.509 212,579C215.781,572.491 237,538 237,538Z" style="fill:black;"/>
            </g>
            <g transform="matrix(0.727273,0,0,0.6,34.8182,198.1)">
                <ellipse cx="129.5" cy="486.5" rx="5.5" ry="7.5" style="fill:none;stroke-width:3px;stroke:rgb(231,47,34);"/>
                <ellipse cx="129.5" cy="486.5" rx="5.5" ry="7.5" style="fill:black;"/>
                <clipPath id="_clip1">
                    <ellipse cx="129.5" cy="486.5" rx="5.5" ry="7.5"/>
                </clipPath>
                <g clip-path="url(#_clip1)">
                    <g transform="matrix(1.375,0,0,1.66667,-32.75,-310.167)">
                        <path d="M117,482.5L121,475" style="fill:none;stroke-width:1px;stroke:white;"/>
                    </g>
                </g>
            </g>
            <g transform="matrix(1.27273,0,0,1.4,-25.8182,-183.6)">
                <ellipse cx="129.5" cy="486.5" rx="5.5" ry="7.5" style="fill:none;stroke-width:1.49px;stroke:rgb(231,47,34);"/>
                <ellipse cx="129.5" cy="486.5" rx="5.5" ry="7.5" style="fill:black;"/>
                <clipPath id="_clip2">
                    <ellipse cx="129.5" cy="486.5" rx="5.5" ry="7.5"/>
                </clipPath>
                <g clip-path="url(#_clip2)">
                    <g transform="matrix(0.785714,0,0,0.714286,31.2857,141.143)">
                        <path d="M123,494L131,475L133,477L125,496L123,494Z" style="fill:white;"/>
                    </g>
                    <g transform="matrix(0.785714,0,0,0.714286,31.6786,141.857)">
                        <path d="M120,491L128,473" style="fill:none;stroke-width:1px;stroke:white;"/>
                    </g>
                </g>
            </g>
            <g transform="matrix(2.27273,0,0,1.73333,-114.818,-354.267)">
                <ellipse cx="129.5" cy="486.5" rx="5.5" ry="7.5" style="fill:none;stroke-width:0.99px;stroke:rgb(231,47,34);"/>
                <ellipse cx="129.5" cy="486.5" rx="5.5" ry="7.5" style="fill:black;"/>
                <clipPath id="_clip3">
                    <ellipse cx="129.5" cy="486.5" rx="5.5" ry="7.5"/>
                </clipPath>
                <g clip-path="url(#_clip3)">
                    <g transform="matrix(0.44,0,0,0.576923,55.36,211.308)">
                        <path d="M160,487L174,464L179,468L165,490L160,487Z" style="fill:white;"/>
                    </g>
                    <g transform="matrix(0.44,0,0,0.576923,55.36,211.308)">
                        <path d="M156,482L168.5,462" style="fill:none;stroke-width:2px;stroke:white;"/>
                    </g>
                </g>
            </g>
            <g transform="matrix(1.09091,0,0,0.8,51.7273,83.8)">
                <ellipse cx="129.5" cy="486.5" rx="5.5" ry="7.5" style="fill:none;stroke-width:2.09px;stroke:rgb(231,47,34);"/>
                <ellipse cx="129.5" cy="486.5" rx="5.5" ry="7.5" style="fill:black;"/>
                <clipPath id="_clip4">
                    <ellipse cx="129.5" cy="486.5" rx="5.5" ry="7.5"/>
                </clipPath>
                <g clip-path="url(#_clip4)">
                    <g transform="matrix(0.916667,0,0,1.25,-37.3333,-89.75)">
                        <path d="M178,466L186,455" style="fill:none;stroke-width:4px;stroke:white;"/>
                    </g>
                </g>
            </g>
            <g transform="matrix(1,0,0,1,11,12)">
                <path d="M24.283,639C24.283,639 25.707,635.648 30,637C34.293,638.352 47,647 47,647L51,647L52,645C52,645 54.553,647.678 57,648C59.447,648.322 63.921,648.97 68,642C72.079,635.03 89,600 89,600C89,600 90.666,593.154 89,590C87.334,586.846 87.707,586.724 85,586C82.293,585.276 80,586 80,586L82,580L82,578C82,578 59.185,531.983 54,522C48.815,512.017 24.283,464 24.283,464L24.283,639Z" style="fill:rgb(231,47,34);"/>
                <clipPath id="_clip5">
                    <path d="M24.283,639C24.283,639 25.707,635.648 30,637C34.293,638.352 47,647 47,647L51,647L52,645C52,645 54.553,647.678 57,648C59.447,648.322 63.921,648.97 68,642C72.079,635.03 89,600 89,600C89,600 90.666,593.154 89,590C87.334,586.846 87.707,586.724 85,586C82.293,585.276 80,586 80,586L82,580L82,578C82,578 59.185,531.983 54,522C48.815,512.017 24.283,464 24.283,464L24.283,639Z"/>
                </clipPath>
                <g clip-path="url(#_clip5)">
                    <path d="M89,600C89,600 85.502,597.488 82,596C78.498,594.512 76,594 76,594L68,611L67,611L66,614L56,635C56,635 63.79,638.43 66,639C68.21,639.57 70,640 70,640L80,630L89,600Z" style="fill:black;"/>
                    <path d="M76,579L24.283,476L24.283,513L63,590C63,590 67.012,598.83 69,595C70.988,591.17 76,582 76,582L76,579Z" style="fill:black;"/>
                    <path d="M24.283,595C24.283,595 40.489,627.92 43,629C45.511,630.08 48.841,634.077 52,627C55.159,619.923 57,615 57,615C57,615 59.227,611.424 56,606C52.773,600.576 24.283,544 24.283,544L24.283,595Z" style="fill:black;"/>
                </g>
            </g>
        </g>
    </g>
</svg>
