<?xml version="1.0" standalone="no"?>
<!DOCTYPE svg PUBLIC "-//W3C//DTD SVG 1.1//EN" "http://www.w3.org/Graphics/SVG/1.1/DTD/svg11.dtd">
<svg width="100%" height="100%" viewBox="0 0 251 250" version="1.1" xmlns="http://www.w3.org/2000/svg" xmlns:xlink="http://www.w3.org/1999/xlink" xml:space="preserve" style="fill-rule:evenodd;clip-rule:evenodd;stroke-miterlimit:1.41421;">
    <g transform="matrix(1,0,0,1,-318.537,-403.965)">
        <g id="Pike">
            <path d="M412,517L331,403.965L318.576,403.965L318.576,414L395,521C395,521 392.973,520.249 392,522C391.027,523.751 386,534 386,534C386,534 359.376,530.69 348,540C336.624,549.31 333.273,560.19 332,568C330.727,575.81 332,585 332,585C332,585 327.64,585.59 327,588C325.686,592.949 330,595 330,595C330,595 326.199,600.134 324,605C321.801,609.866 318.576,618 318.576,618L318.576,623C318.576,623 318.169,624.131 320,624C321.831,623.869 322,623 322,623C322,623 321.962,625.229 321,627C320.038,628.771 318.576,632 318.576,632L318.576,653.965L385,653.965C385,653.965 386.959,644.688 387,640C387.041,635.312 387.544,629 387.544,629C387.544,629 392.551,639.242 394,643C395.449,646.758 396,653.965 396,653.965L568.576,653.965L568.576,508C568.576,508 542.554,513.473 530,521C517.446,528.527 512,534 512,534C512,534 508.54,533.655 505,534C501.46,534.345 500,534 500,534C500,534 495.233,525.211 494.002,523C492.77,520.789 491.019,521.124 489,522C486.981,522.876 487,528 487,528L487,533L484,533L423,536L412,517ZM401.532,534L399,534C399,534 399.075,531.474 399,528.965C398.925,526.455 399,526 399,526L404,533L401.532,534Z" style="fill:black;"/>
            <clipPath id="_clip1">
                <path d="M412,517L331,403.965L318.576,403.965L318.576,414L395,521C395,521 392.973,520.249 392,522C391.027,523.751 386,534 386,534C386,534 359.376,530.69 348,540C336.624,549.31 333.273,560.19 332,568C330.727,575.81 332,585 332,585C332,585 327.64,585.59 327,588C325.686,592.949 330,595 330,595C330,595 326.199,600.134 324,605C321.801,609.866 318.576,618 318.576,618L318.576,623C318.576,623 318.169,624.131 320,624C321.831,623.869 322,623 322,623C322,623 321.962,625.229 321,627C320.038,628.771 318.576,632 318.576,632L318.576,653.965L385,653.965C385,653.965 386.959,644.688 387,640C387.041,635.312 387.544,629 387.544,629C387.544,629 392.551,639.242 394,643C395.449,646.758 396,653.965 396,653.965L568.576,653.965L568.576,508C568.576,508 542.554,513.473 530,521C517.446,528.527 512,534 512,534C512,534 508.54,533.655 505,534C501.46,534.345 500,534 500,534C500,534 495.233,525.211 494.002,523C492.77,520.789 491.019,521.124 489,522C486.981,522.876 487,528 487,528L487,533L484,533L423,536L412,517ZM401.532,534L399,534C399,534 399.075,531.474 399,528.965C398.925,526.455 399,526 399,526L404,533L401.532,534Z"/>
            </clipPath>
            <g clip-path="url(#_clip1)">
                <path d="M385,653.965C385,653.965 388.02,638.846 387.544,634C387.069,629.154 387.544,628 387.544,628C387.544,628 383.985,619.717 384,613C384.015,606.283 384,592 384,592C384,592 378.939,602.994 374,612C369.061,621.006 364.331,629.093 363,629C361.669,628.907 354.435,620.86 352,618C349.565,615.14 348,613 348,613C348,613 334.116,619.606 330,621C325.884,622.394 323,623 323,623L322,624C322,624 321.235,626.489 320,629C318.765,631.511 318.576,633 318.576,633L318.576,653.965L385,653.965Z" style="fill:rgb(231,47,34);"/>
            </g>
            <g id="Necklace">
                <path d="M411.058,487C411.058,487 408.254,490.031 406,490C403.746,489.969 402,489 402,489C402,489 396.049,493.418 396,497C395.951,500.582 394.326,507.468 397,510C399.674,512.532 404,514 404,514C404,514 394.683,513.361 393,507C391.317,500.639 390.507,496.641 395,492C399.493,487.359 406.381,476.65 404,473C401.619,469.35 396.328,462.562 395,459C393.672,455.438 393,451 393,451C393,451 388.493,454.298 389,461C389.507,467.702 392,473 392,473C392,473 384.456,459.785 389,450C393.544,440.215 395,439 395,439C395,439 393.362,435.924 394,434C394.638,432.076 395,432 395,432C395,432 393.893,424.767 396,423C398.107,421.233 401,420 401,420C401,420 400.387,413.894 403,413C405.613,412.106 408.052,411.219 412,408C415.948,404.781 417,403.965 417,403.965L467,403.965C467,403.965 470.703,404.905 473,406C475.297,407.095 475,408 475,408C475,408 478.876,406.844 481,410C483.124,413.156 483,416 483,416C483,416 483.393,417.217 485,419C486.607,420.783 486,423 486,423C486,423 489.649,425.236 489,428C488.351,430.764 488,432 488,432C488,432 488.679,433.725 488,437C487.321,440.275 486,441 486,441L487,447C487,447 493.901,453.384 494,460C494.099,466.616 489.715,473.566 486,477C482.285,480.434 475.316,488.034 480,491C484.684,493.966 489.947,496.699 490,500C490.053,503.301 489.389,507.473 486,510C482.611,512.527 478,512 478,512C478,512 482.936,512 485,508C487.064,504 488.111,500.236 483,497C477.889,493.764 475.879,491.849 476,489C476.121,486.151 476,485 476,485L472,489L468,494L469,495C469,495 470.817,499.345 473,498C475.183,496.655 478.746,495.177 479,498C479.254,500.823 476,504 476,504C476,504 479.222,499.918 477,499C474.778,498.082 471.523,500.164 470,499C468.477,497.836 467,497 467,497L418,496C418,496 413.704,495.351 410.661,498.265C404.262,504.391 409.306,509.338 408.927,508.99C405.307,505.671 407.241,499.57 408.163,498.449C411.313,494.616 417.424,493.807 418.306,491.739C419.217,489.606 411.058,487 411.058,487Z" style="fill:rgb(231,47,34);"/>
                <circle cx="448.5" cy="620.5" r="10.5" style="fill:rgb(231,47,34);"/>
                <path d="M450,611L448.5,600L448,600L447,611L442,612L433,608L440.464,616L439,619L430,620.5L439,622L440.464,626L434,633L443,628L446,630L448.5,639L450,630L454,629L463,633L456,626L458,622L467,620.5L458,618L457,615L464,608L454,613L450,611Z" style="fill:rgb(231,47,34);"/>
                <g transform="matrix(1.5,0,0,1.5,-222.5,-299)">
                    <path d="M447,598C447.552,598 448,598.448 448,599C448,599.552 447.552,600 447,600C446.448,600 446,599.552 446,599C446,598.448 446.448,598 447,598ZM447,598.5C447.276,598.5 447.5,598.724 447.5,599C447.5,599.276 447.276,599.5 447,599.5C446.724,599.5 446.5,599.276 446.5,599C446.5,598.724 446.724,598.5 447,598.5Z" style="fill:rgb(231,47,34);"/>
                </g>
                <path d="M433,574C433,574 447.881,594.165 448,598C448.119,601.835 453.673,588.715 464,572" style="fill:none;stroke-width:1px;stroke:rgb(231,47,34);"/>
            </g>
            <path d="M422,506C422,506 416.768,507.148 415,510C413.232,512.852 413,516 413,516C413,516 410.732,516.399 411,519C411.268,521.601 412,523 412,523C412,523 408.679,522.213 408,524C407.321,525.787 408.512,528.63 407,528.965C405.488,529.3 405.064,531 405.064,531C405.064,531 402.53,530.506 401.532,532C400.534,533.494 401.532,534 401.532,534C401.532,534 406.393,545.055 408,551C409.607,556.945 410.173,559.869 426,570C441.827,580.131 453,589 453,589C453,589 458.881,580.465 464,573C469.119,565.535 477.166,554.885 480,550C482.834,545.115 487.595,537.732 486,532C484.405,526.268 482.01,521.204 480,521C477.99,520.796 476,522 476,522C476,522 475.981,520.502 475,519C474.019,517.498 473,517 473,517C473,517 473.953,514.228 474,512C474.047,509.772 474.319,507.027 467,506C459.681,504.973 422,506 422,506Z" style="fill:rgb(231,47,34);"/>
            <path d="M423,520C423,520 422.14,509.436 422,507C421.86,504.564 422,502 422,502C422,502 416.768,497.169 414,489C413.805,488.424 412.749,488.992 412,488C411.251,487.008 411,487 411,487C411,487 417.593,481.154 417,476C416.407,470.846 409.248,466.481 409,460C408.752,453.519 408.925,447.537 413,444C417.075,440.463 421,438 421,438L424,440L426,438C426,438 443.668,435.154 450,436C456.332,436.846 458.773,438.135 462,450C465.227,461.865 470.041,475.839 465,480C459.959,484.161 451,482 451,482C451,482 459.905,488.933 465,490C469.035,490.845 472,489 472,489C472,489 469.631,494.807 468,498C466.369,501.193 465,503 465,503L465,519C465,519 459.072,525.782 454,528C448.928,530.218 442,532 442,532C442,532 434.179,527.53 430,525C425.821,522.47 423,520 423,520Z" style="fill:black;"/>
            <clipPath id="_clip2">
                <path d="M423,520C423,520 422.14,509.436 422,507C421.86,504.564 422,502 422,502C422,502 416.768,497.169 414,489C413.805,488.424 412.749,488.992 412,488C411.251,487.008 411,487 411,487C411,487 417.593,481.154 417,476C416.407,470.846 409.248,466.481 409,460C408.752,453.519 408.925,447.537 413,444C417.075,440.463 421,438 421,438L424,440L426,438C426,438 443.668,435.154 450,436C456.332,436.846 458.773,438.135 462,450C465.227,461.865 470.041,475.839 465,480C459.959,484.161 451,482 451,482C451,482 459.905,488.933 465,490C469.035,490.845 472,489 472,489C472,489 469.631,494.807 468,498C466.369,501.193 465,503 465,503L465,519C465,519 459.072,525.782 454,528C448.928,530.218 442,532 442,532C442,532 434.179,527.53 430,525C425.821,522.47 423,520 423,520Z"/>
            </clipPath>
            <g clip-path="url(#_clip2)">
                <path d="M417,467C417,467 418.674,465.77 425,466C432.556,466.275 433,470 433,470C433,470 429.472,469.939 427,470C419.037,470.196 417,467 417,467Z" style="fill:white;"/>
                <clipPath id="_clip3">
                    <path d="M417,467C417,467 418.674,465.77 425,466C432.556,466.275 433,470 433,470C433,470 429.472,469.939 427,470C419.037,470.196 417,467 417,467Z"/>
                </clipPath>
                <g clip-path="url(#_clip3)">
                    <g transform="matrix(1,0,0,1,-3.9222e-12,-2)">
                        <circle cx="427.5" cy="469.5" r="3.5" style="fill:rgb(231,47,34);"/>
                    </g>
                </g>
                <path d="M453,470C453,470 454.358,466.223 459.637,466.009C459.759,466.004 459.88,465.999 460,466C463.596,466.043 466,466 466,466L468,468C468,468 464.791,469.947 461,470C457.209,470.053 453,470 453,470Z" style="fill:white;"/>
                <clipPath id="_clip4">
                    <path d="M453,470C453,470 454.358,466.223 459.637,466.009C459.759,466.004 459.88,465.999 460,466C463.596,466.043 466,466 466,466L468,468C468,468 464.791,469.947 461,470C457.209,470.053 453,470 453,470Z"/>
                </clipPath>
                <g clip-path="url(#_clip4)">
                    <g transform="matrix(1,0,0,1,31,-2)">
                        <circle cx="427.5" cy="469.5" r="3.5" style="fill:rgb(231,47,34);"/>
                    </g>
                </g>
            </g>
            <path d="M408.927,483.921C408.927,483.921 410.87,482.191 411,480C411.13,477.809 411,474 411,474C411,474 409.751,475.588 408.927,477C408.103,478.412 407,479 407,479C407,479 407.667,482.055 408.927,483.921Z" style="fill:black;"/>
            <path d="M405,473C405,473 405.144,469.501 405,468C404.856,466.499 405,465 405,465C405,465 402.29,462.409 403,459C403.71,455.591 405,452 405,452C405,452 402.299,447.323 401,446C399.701,444.677 399,443 399,443L398,444C398,444 399.36,457.343 401,462C402.64,466.657 405,473 405,473Z" style="fill:black;"/>
        </g>
    </g>
</svg>
