<?xml version="1.0" standalone="no"?>
<!DOCTYPE svg PUBLIC "-//W3C//DTD SVG 1.1//EN" "http://www.w3.org/Graphics/SVG/1.1/DTD/svg11.dtd">
<svg width="100%" height="100%" viewBox="0 0 240 249" version="1.1" xmlns="http://www.w3.org/2000/svg" xmlns:xlink="http://www.w3.org/1999/xlink" xml:space="preserve" style="fill-rule:evenodd;clip-rule:evenodd;stroke-miterlimit:1.41421;">
    <g transform="matrix(1,0,0,1,-28.4673,-672)">
        <g id="Scanlan">
            <path d="M204,854C204,854 211.252,824.061 217,800.789C224.965,768.54 230,749 230,749C230,749 223.387,743.267 226,735C227.942,728.857 235,725 235,725C235,725 228.516,713.324 230,707C230.846,703.396 241.82,685.158 251,683C255.781,681.876 259.441,679.007 260,687C261.614,710.086 261.354,717.657 260,721C257.147,728.04 254,731 254,731C254,731 258.348,739.055 257,744C255.167,750.723 249,752.5 249,752.5C249,752.5 238.344,793.754 236,804C230.432,828.338 222,860 222,860L203,856L204,854Z" style="fill:black;"/>
            <clipPath id="_clip1">
                <path d="M204,854C204,854 211.252,824.061 217,800.789C224.965,768.54 230,749 230,749C230,749 223.387,743.267 226,735C227.942,728.857 235,725 235,725C235,725 228.516,713.324 230,707C230.846,703.396 241.82,685.158 251,683C255.781,681.876 259.441,679.007 260,687C261.614,710.086 261.354,717.657 260,721C257.147,728.04 254,731 254,731C254,731 258.348,739.055 257,744C255.167,750.723 249,752.5 249,752.5C249,752.5 238.344,793.754 236,804C230.432,828.338 222,860 222,860L203,856L204,854Z"/>
            </clipPath>
            <g clip-path="url(#_clip1)">
                <g transform="matrix(1.30475,0.334106,-0.297866,1.16323,207.532,-296.507)">
                    <ellipse cx="212.5" cy="844.5" rx="1.5" ry="2.5" style="fill:none;stroke-width:0.78px;stroke:rgb(231,47,34);"/>
                </g>
                <g transform="matrix(1.30475,0.334106,-0.297866,1.16323,202.343,-276.507)">
                    <ellipse cx="212.5" cy="844.5" rx="1.5" ry="2.5" style="fill:none;stroke-width:0.78px;stroke:rgb(231,47,34);"/>
                </g>
                <g transform="matrix(1.30475,0.334106,-0.297866,1.16323,196.343,-253.65)">
                    <ellipse cx="212.5" cy="844.5" rx="1.5" ry="2.5" style="fill:none;stroke-width:0.78px;stroke:rgb(231,47,34);"/>
                </g>
                <g transform="matrix(1.33274,0.194472,-0.173378,1.18818,80.2663,-222.047)">
                    <ellipse cx="212.5" cy="844.5" rx="1.5" ry="2.5" style="fill:none;stroke-width:0.78px;stroke:rgb(231,47,34);"/>
                </g>
                <g transform="matrix(1.34607,0.0459664,-0.0409805,1.20006,-39.3759,-179.525)">
                    <ellipse cx="212.5" cy="844.5" rx="1.5" ry="2.5" style="fill:none;stroke-width:0.78px;stroke:rgb(231,47,34);"/>
                </g>
                <path d="M235,711C235,711 235.207,710.318 243,710C250.793,709.682 253,710 253,710C253,710 252.315,711.167 251,713C249.685,714.833 249,716 249,716L237,716C237,716 235.279,714.384 235,711Z" style="fill:none;stroke-width:1px;stroke:rgb(231,47,34);"/>
            </g>
            <path d="M176,771C181.325,772.997 188.152,774.877 190,769C191.723,763.521 190,757 190,757C190,757 192.038,759.368 192,766C191.872,788.564 173,794 173,794L173,776C173,776 170.675,769.003 176,771Z" style="fill:rgb(231,47,34);"/>
            <path d="M86,806C86,806 84.622,802.595 83,800.05C81.378,797.506 79,796.744 79,796.744C79,796.744 80.72,803.092 70,799C49.531,791.188 41.696,777.916 39,775C35.753,771.488 36.726,771.116 42,771C60.434,770.596 61.132,771.715 67,774C72.868,776.285 83,772 83,772C83,772 83.162,765.728 87,760C90.838,754.272 89.717,751.728 95,747C102.695,740.113 105.901,743.351 115,739C124.438,734.487 126,723 126,723L162,712L174,719C174,719 174.072,726.732 174,731C173.928,735.268 172.596,741.505 173,745C173.633,750.468 172,755 172,755C172,755 175.996,760.962 176,767C176.004,773.038 176,781 176,781C176,781 177.966,784.516 177,786C174.974,789.112 174,789 174,789C174,789 174.124,789.982 174,793C173.833,797.065 172,798 172,798C172,798 172.361,803.12 171,805C169.639,806.88 168,808 168,808C168,808 168.584,809.356 167,813C165.416,816.644 164.824,817.4 164,822C162.877,828.271 157,830 157,830L157,832C157,832 133.837,820.068 120,814C106.163,807.932 86,806 86,806Z" style="fill:black;"/>
            <clipPath id="_clip2">
                <path d="M86,806C86,806 84.622,802.595 83,800.05C81.378,797.506 79,796.744 79,796.744C79,796.744 80.72,803.092 70,799C49.531,791.188 41.696,777.916 39,775C35.753,771.488 36.726,771.116 42,771C60.434,770.596 61.132,771.715 67,774C72.868,776.285 83,772 83,772C83,772 83.162,765.728 87,760C90.838,754.272 89.717,751.728 95,747C102.695,740.113 105.901,743.351 115,739C124.438,734.487 126,723 126,723L162,712L174,719C174,719 174.072,726.732 174,731C173.928,735.268 172.596,741.505 173,745C173.633,750.468 172,755 172,755C172,755 175.996,760.962 176,767C176.004,773.038 176,781 176,781C176,781 177.966,784.516 177,786C174.974,789.112 174,789 174,789C174,789 174.124,789.982 174,793C173.833,797.065 172,798 172,798C172,798 172.361,803.12 171,805C169.639,806.88 168,808 168,808C168,808 168.584,809.356 167,813C165.416,816.644 164.824,817.4 164,822C162.877,828.271 157,830 157,830L157,832C157,832 133.837,820.068 120,814C106.163,807.932 86,806 86,806Z"/>
            </clipPath>
            <g clip-path="url(#_clip2)">
                <path d="M120,773C120,773 124.141,768.443 131,766C137.859,763.557 143,766 143,766C143,766 138.209,769.153 133,771C125.132,773.79 120,773 120,773Z" style="fill:white;"/>
                <clipPath id="_clip3">
                    <path d="M120,773C120,773 124.141,768.443 131,766C137.859,763.557 143,766 143,766C143,766 138.209,769.153 133,771C125.132,773.79 120,773 120,773Z"/>
                </clipPath>
                <g clip-path="url(#_clip3)">
                    <circle cx="126.5" cy="770.5" r="3.5" style="fill:rgb(231,47,34);"/>
                </g>
                <path d="M160,755C160,755 160.058,748.524 162,746C163.942,743.476 167,749 167,749C167,749 166.91,750.067 165,752C163.09,753.933 160,755 160,755Z" style="fill:white;"/>
                <clipPath id="_clip4">
                    <path d="M160,755C160,755 160.058,748.524 162,746C163.942,743.476 167,749 167,749C167,749 166.91,750.067 165,752C163.09,753.933 160,755 160,755Z"/>
                </clipPath>
                <g clip-path="url(#_clip4)">
                    <g transform="matrix(0.714286,0,0,0.714286,70.1429,202.143)">
                        <circle cx="126.5" cy="770.5" r="3.5" style="fill:rgb(231,47,34);"/>
                    </g>
                </g>
            </g>
            <path d="M28.467,833L28.467,770.5C28.467,770.5 33.984,774.741 34,778C34.031,784.434 31,784 31,784C31,784 33.348,780.955 31,777C28.652,773.045 28.467,776 28.467,776L28.467,791C28.467,791 32.944,793.828 38,793C45.81,791.72 46,789 46,789C46,789 45.196,789.709 44,786C42.804,782.291 44,778 44,778L40,770.5L40,767C40,767 39.552,767.261 37.131,767C34.71,766.739 32,766 32,766C32,766 33.732,765.989 35,765C36.268,764.011 37,763 37,763C37,763 35.922,763.187 33,763C30.078,762.813 28.467,762 28.467,762C28.467,762 32.896,761.211 31,760C29.104,758.789 28.467,759 28.467,759L28.467,758C28.467,758 32.072,758.157 35,755C40.875,748.666 39.195,737.682 41,729C44.439,712.457 55,707 55,707L55,706C55,706 48.176,706.574 47,697C45.824,687.426 49,686 49,686C49,686 45.858,696.282 52,698C58.142,699.718 61.57,698.048 67,691C72.43,683.952 76.427,684.682 81,684C85.573,683.318 87.485,684.159 91,682C94.515,679.841 116.029,680.602 124,680C139.967,678.794 139,672 139,672C139,672 139.417,673.732 138,677C136.583,680.268 137,681 137,681C137,681 139.752,677.724 146,677C152.248,676.276 152,679 152,679C152,679 147.148,675.873 144,680C140.852,684.127 140,691 140,691C140,691 145.156,676.914 165,682C183.558,686.756 183.682,688.174 190,689C196.318,689.826 200,689 200,689C200,689 195.047,691.188 186,691C176.953,690.812 175,693 175,693C175,693 177.022,694.89 182,699C186.978,703.11 188,705 188,705C188,705 184.434,701.549 181,700C177.566,698.451 176,699 176,699C176,699 179.545,704.314 185,706C192.261,708.244 200,707 200,707C200,707 193.383,710.115 189,713C181.194,718.139 178.333,717 173,719L165,730C165,730 164.999,724.305 163,721C161.001,717.695 157.24,719.031 153.467,722C149.695,724.969 147.23,727.146 146,725C144.77,722.854 143.935,726.006 140,728C130.977,732.572 126.193,728.931 123,734C118.3,741.46 102.604,740.853 98,745C93.396,749.147 92.425,749.155 91,753C89.386,757.356 87,761 87,761C87,761 89.135,760.615 90,759C91.452,756.288 92,756 92,756C92,756 91.756,759.835 91,761C88.265,765.213 85,769 85,769C85,769 86.101,769.531 87,769C89.093,767.763 90,767 90,767C90,767 87.967,769.746 87,770C84.709,770.602 82.229,770.995 84,776C92.317,799.501 97,798 97,798C97,798 95.254,799.061 95,799C94.746,798.939 94.658,799.77 96,801C97.342,802.23 99,803 99,803C99,803 95.867,803.441 92,801C83.145,795.411 81,792 81,792L81,797C81,797 81.373,798.164 83,800C84.627,801.836 87,804 87,804L85,807C85,807 65.45,803.054 63,802C60.55,800.946 57.703,799.123 53,800C45.829,801.337 46,804 46,804C46,804 41.11,806.078 40,810C36.893,820.977 35,825 35,825L31,831L28.467,833" style="fill:rgb(231,47,34);"/>
            <path d="M82,793C82,793 77.05,785.764 75,782C70.339,773.443 62,771 62,771L40,771C40,771 34.945,770.534 40,776.5C57.86,797.578 74.833,802.555 79,799C81.915,796.513 82,793 82,793Z" style="fill:black;"/>
            <path d="M46,804C63.036,801.68 102.186,798.348 156,832C178.722,846.209 224.712,864.105 252,865C266.962,865.491 271.534,863.676 266,869C240.514,893.515 209,900 209,900C209,900 216.717,904.163 224,907C235.019,911.292 243,911 243,911C243,911 240.953,913.944 238,916C232.823,919.604 231,920.726 231,920.726L28.467,920.726L28.467,851C28.467,851 31.506,849.86 37.131,848C42.755,846.14 50,844 50,844C50,844 43.942,839.183 39.234,836C32.237,831.27 30,832 30,832L35,824C35,824 36.307,823.052 39.234,822C44.366,820.154 50,818 50,818C50,818 49.239,816.333 46,814C39.395,809.242 39.234,811 39.234,811L40,804C40,804 28.964,806.32 46,804Z" style="fill:rgb(231,47,34);"/>
        </g>
    </g>
</svg>
