<?xml version="1.0" standalone="no"?>
<!DOCTYPE svg PUBLIC "-//W3C//DTD SVG 1.1//EN" "http://www.w3.org/Graphics/SVG/1.1/DTD/svg11.dtd">
<svg width="100%" height="100%" viewBox="0 0 251 251" version="1.1" xmlns="http://www.w3.org/2000/svg" xmlns:xlink="http://www.w3.org/1999/xlink" xml:space="preserve" style="fill-rule:evenodd;clip-rule:evenodd;stroke-linejoin:round;stroke-miterlimit:1.41421;">
    <g transform="matrix(1,0,0,1,-318.537,-684.289)">
        <g id="Tiberius" transform="matrix(1,0,0,1,-0.913398,9)">
            <g transform="matrix(1,0,0,1,0.913398,-9)">
                <path d="M516,767C516,767 536.186,773.678 545,777C553.814,780.322 568.563,788 568.563,788L568.563,823C568.563,823 558.097,826.533 551,829C543.903,831.467 532,835 532,835C532,835 540.965,840.87 550,845C559.035,849.13 568.563,853 568.563,853L568.563,935.289L318.537,935.289L318.537,865C318.537,865 320.307,862.5 323,861C326.596,858.997 328.057,859.13 331,857C337.041,852.627 358,845 358,845L367,786C367,786 360.985,788.549 371,785C381.015,781.451 405.879,776 405.879,776L516,767Z" style="fill:rgb(231,47,34);"/>
            </g>
            <g transform="matrix(1,0,0,1,0.913398,-9)">
                <path d="M408,732C408,732 406.935,734.082 407,726C407.026,722.812 407,722 407,722C407,722 405.442,722.043 406,713C406.558,703.957 410.963,701.662 413,700C415.037,698.338 417.976,698.791 419,697C421.426,692.758 426.142,695.752 430,692C432.994,689.088 435,691 435,691C435,691 434.001,687.055 443.537,687C453.073,686.945 458,684.289 458,684.289L492,684.289C492,684.289 488.93,687.738 488,691C484.32,703.91 467,702 467,702C467,702 465.224,702.716 465,706C464.694,710.488 462,710 462,710L410,733L408,732Z" style="fill:rgb(231,47,34);"/>
            </g>
            <g transform="matrix(1,0,0,1,0.913398,-9)">
                <path d="M480,713C480,713 479.046,711.962 483,708.645C486.148,706.003 486.27,703.856 488,710C489.471,715.224 488,715 488,715" style="fill:rgb(231,47,34);"/>
            </g>
            <g transform="matrix(1,0,0,1,0.913398,-9)">
                <path d="M505,719C508.01,716.472 511,718 511,718C511,718 511.304,716.002 514,716C516.696,715.998 518,717 518,717C518,717 518.712,714.218 521,714C523.288,713.782 526,714 526,714C526,714 525.764,711.13 529,708.645C539.159,700.844 541.507,707.087 536,700C533.26,696.474 534,684.289 534,684.289L544,684.289C544,684.289 543.455,686.681 548,691C549.054,692.002 551.93,698.165 562,708C566.499,712.394 568.117,719.677 568.537,724C568.595,724.597 568.537,727 568.537,727C568.537,727 566.925,729.615 564,733C561.228,736.208 557,739 557,739C557,739 557.446,741.066 555,743C552.554,744.934 550,745 550,745C550,745 549.355,748.482 547,750C543.535,752.233 540,752 540,752C540,752 539.964,753.242 535,756C530.036,758.758 529,759 529,759C529,759 529.396,759.488 526,761C522.604,762.512 522,761 522,761C522,761 522.188,762.495 521,763C519.812,763.505 518,763 518,763C518,763 501.99,721.528 505,719Z" style="fill:rgb(231,47,34);"/>
            </g>
            <g transform="matrix(1,0,0,1,0.913398,-9)">
                <path d="M427,903C427,903 421.827,895.667 416,888C412.045,882.795 412.811,887.99 403,873C395.886,862.131 398.217,859.566 398,855C397.812,851.049 399.965,851.018 400,843C400,843 399.558,842.613 398,842C396.442,841.387 396,840 396,840C396,840 395.252,840.612 395,842C394.558,844.439 395,846 395,846C395,846 392.716,844.346 391,840C386.323,828.155 385.03,817.897 388,811C390.673,804.794 394.948,803.471 395.592,800.753C396.49,796.967 398.662,792.908 399,791C399.578,787.741 405,784 405,784C405,784 405.328,776.3 404,774.998C399.796,770.874 402.589,766.88 400,764C397.087,760.759 396,759 396,759C396,759 402.91,754.549 402,748C399.63,730.943 398,727 398,727C398,727 400.898,736.024 404,742C407.102,747.976 410,752 410,752C410,752 412.736,750.057 412,746C410.657,738.599 405.547,735.951 409,731C414.798,722.686 414.083,718.198 422,713C427.616,709.313 441.787,707.135 443.556,707C451.156,706.419 451,709 451,709C451,709 452.276,706.024 459,708C465.724,709.976 464,713 464,713C464,713 466.59,713.329 471,714C477.923,715.054 476.91,711.527 484,713C491.09,714.473 491.524,718.037 492,718C504.162,717.053 503.316,716.233 507,721C512.722,728.405 508.167,726.468 518,738C520.796,741.279 518.615,743.373 519,753C519.385,762.627 518,766 518,766C518,766 517.194,767.32 514,769C510.806,770.68 507,773 507,773C507,773 511.31,772.913 520,768C528.69,763.087 553,748 553,748C553,748 537.938,762.554 538,769C538.194,789.069 549,787 549,787C549,787 551.419,787.624 548,788C544.581,788.376 537.417,790.18 532,799C522.795,813.988 533,821 533,821C533,821 534.365,824.531 532,823C529.635,821.469 527,820 527,820C527,820 526.664,827.033 519,833C506.428,842.789 489.39,850.029 477,855C460.535,861.606 427,903 427,903Z" style="fill:black;"/>
                <clipPath id="_clip1">
                    <path d="M427,903C427,903 421.827,895.667 416,888C412.045,882.795 412.811,887.99 403,873C395.886,862.131 398.217,859.566 398,855C397.812,851.049 399.965,851.018 400,843C400,843 399.558,842.613 398,842C396.442,841.387 396,840 396,840C396,840 395.252,840.612 395,842C394.558,844.439 395,846 395,846C395,846 392.716,844.346 391,840C386.323,828.155 385.03,817.897 388,811C390.673,804.794 394.948,803.471 395.592,800.753C396.49,796.967 398.662,792.908 399,791C399.578,787.741 405,784 405,784C405,784 405.328,776.3 404,774.998C399.796,770.874 402.589,766.88 400,764C397.087,760.759 396,759 396,759C396,759 402.91,754.549 402,748C399.63,730.943 398,727 398,727C398,727 400.898,736.024 404,742C407.102,747.976 410,752 410,752C410,752 412.736,750.057 412,746C410.657,738.599 405.547,735.951 409,731C414.798,722.686 414.083,718.198 422,713C427.616,709.313 441.787,707.135 443.556,707C451.156,706.419 451,709 451,709C451,709 452.276,706.024 459,708C465.724,709.976 464,713 464,713C464,713 466.59,713.329 471,714C477.923,715.054 476.91,711.527 484,713C491.09,714.473 491.524,718.037 492,718C504.162,717.053 503.316,716.233 507,721C512.722,728.405 508.167,726.468 518,738C520.796,741.279 518.615,743.373 519,753C519.385,762.627 518,766 518,766C518,766 517.194,767.32 514,769C510.806,770.68 507,773 507,773C507,773 511.31,772.913 520,768C528.69,763.087 553,748 553,748C553,748 537.938,762.554 538,769C538.194,789.069 549,787 549,787C549,787 551.419,787.624 548,788C544.581,788.376 537.417,790.18 532,799C522.795,813.988 533,821 533,821C533,821 534.365,824.531 532,823C529.635,821.469 527,820 527,820C527,820 526.664,827.033 519,833C506.428,842.789 489.39,850.029 477,855C460.535,861.606 427,903 427,903Z"/>
                </clipPath>
                <g clip-path="url(#_clip1)">
                    <path d="M456,780C456,780 455.845,772.825 464,769C471.051,765.693 472,771 472,771C472,771 469.997,772.427 471,774C471.345,774.541 469.36,774.254 470,777C470.249,778.07 467.593,775.757 467,780C466.913,780.623 465.21,778.541 464,780C463.501,780.602 456,780 456,780Z" style="fill:white;"/>
                    <clipPath id="_clip2">
                        <path d="M456,780C456,780 455.845,772.825 464,769C471.051,765.693 472,771 472,771C472,771 469.997,772.427 471,774C471.345,774.541 469.36,774.254 470,777C470.249,778.07 467.593,775.757 467,780C466.913,780.623 465.21,778.541 464,780C463.501,780.602 456,780 456,780Z"/>
                    </clipPath>
                    <g clip-path="url(#_clip2)">
                        <g transform="matrix(0.997224,-0.0366482,0.0419787,1.14227,-32.3192,-97.8954)">
                            <ellipse cx="466" cy="776.5" rx="1" ry="3.5" style="fill:rgb(231,47,34);"/>
                        </g>
                    </g>
                </g>
            </g>
            <g transform="matrix(0.412766,0.224375,-0.388204,0.71415,540.547,123.204)">
                <path d="M403,775.518C403,775.231 402.597,774.998 402.1,774.998L401.9,774.998C401.403,774.998 401,775.231 401,775.518L401,784.48C401,784.767 401.403,785 401.9,785L402.1,785C402.597,785 403,784.767 403,784.48L403,775.518Z" style="fill:white;"/>
            </g>
            <g transform="matrix(0.412766,0.224375,-0.388204,0.71415,582.547,128.559)">
                <path d="M403,775.518C403,775.231 402.597,774.998 402.1,774.998L401.9,774.998C401.403,774.998 401,775.231 401,775.518L401,784.48C401,784.767 401.403,785 401.9,785L402.1,785C402.597,785 403,784.767 403,784.48L403,775.518Z" style="fill:white;"/>
            </g>
            <g transform="matrix(0.555273,0.30184,-0.559664,1.02957,614.643,-154.466)">
                <path d="M403,775.483C403,775.215 402.597,774.998 402.1,774.998L401.9,774.998C401.403,774.998 401,775.215 401,775.483L401,784.515C401,784.783 401.403,785 401.9,785L402.1,785C402.597,785 403,784.783 403,784.515L403,775.483Z" style="fill:white;"/>
            </g>
            <g transform="matrix(0.345473,0.187795,-0.601614,1.10674,772.705,-163.364)">
                <path d="M403,775.279C403,775.124 402.597,774.998 402.1,774.998L401.9,774.998C401.403,774.998 401,775.124 401,775.279L401,784.719C401,784.874 401.403,785 401.9,785L402.1,785C402.597,785 403,784.874 403,784.719L403,775.279Z" style="fill:white;"/>
            </g>
            <g transform="matrix(0.686984,0.373437,-0.601614,1.10674,633.846,-238.961)">
                <path d="M403,775.556C403,775.248 402.597,774.998 402.1,774.998L401.9,774.998C401.403,774.998 401,775.248 401,775.556L401,784.441C401,784.75 401.403,785 401.9,785L402.1,785C402.597,785 403,784.75 403,784.441L403,775.556Z" style="fill:white;"/>
            </g>
            <g transform="matrix(1.1875,0,0,1.14286,-84.4616,-123.145)">
                <path d="M442,778C446.415,778 450,782.705 450,788.5C450,794.295 446.415,799 442,799C437.585,799 434,794.295 434,788.5C434,782.705 437.585,778 442,778ZM442,780.095C445.534,780.095 448.404,783.861 448.404,788.5C448.404,793.139 445.534,796.905 442,796.905C438.466,796.905 435.596,793.139 435.596,788.5C435.596,783.861 438.466,780.095 442,780.095Z" style="fill:rgb(231,47,34);"/>
            </g>
            <g transform="matrix(0.8125,0,0,0.952381,41.2884,21.0454)">
                <path d="M442,778C446.415,778 450,782.705 450,788.5C450,794.295 446.415,799 442,799C437.585,799 434,794.295 434,788.5C434,782.705 437.585,778 442,778ZM442,779.858C445.634,779.858 448.584,783.731 448.584,788.5C448.584,793.269 445.634,797.142 442,797.142C438.366,797.142 435.416,793.269 435.416,788.5C435.416,783.731 438.366,779.858 442,779.858Z" style="fill:rgb(231,47,34);"/>
            </g>
            <g transform="matrix(0.8125,0,0,0.952381,41.2884,21.0454)">
                <path d="M442,778C446.415,778 450,782.705 450,788.5C450,794.295 446.415,799 442,799C437.585,799 434,794.295 434,788.5C434,782.705 437.585,778 442,778ZM442,779.858C445.634,779.858 448.584,783.731 448.584,788.5C448.584,793.269 445.634,797.142 442,797.142C438.366,797.142 435.416,793.269 435.416,788.5C435.416,783.731 438.366,779.858 442,779.858Z" style="fill:rgb(231,47,34);"/>
            </g>
            <g transform="matrix(0.8125,0,0,0.952381,41.2884,21.0454)">
                <path d="M442,778C446.415,778 450,782.705 450,788.5C450,794.295 446.415,799 442,799C437.585,799 434,794.295 434,788.5C434,782.705 437.585,778 442,778ZM442,779.858C445.634,779.858 448.584,783.731 448.584,788.5C448.584,793.269 445.634,797.142 442,797.142C438.366,797.142 435.416,793.269 435.416,788.5C435.416,783.731 438.366,779.858 442,779.858Z" style="fill:rgb(231,47,34);"/>
            </g>
            <g transform="matrix(1,0,0,1,0.913398,-9)">
                <path d="M391,935.289L369,935.289L363,896C363,896 360.586,897.233 360,894C359.632,891.97 359,891 359,891C359,891 355.802,893.321 356,885C356.126,879.677 357,878 357,878C357,878 355.467,878.796 355,875C354.664,872.269 356,872 356,872C356,872 352.308,876.143 352,854C351.957,850.903 353,851 353,851C353,851 350.863,850.671 351,846C351.072,843.553 352,842 352,842C352,842 351.007,842.978 350,841C348.993,839.022 350,838 350,838C350,838 346.573,836.993 347,834C347.427,831.007 349,829 349,829C349,829 343.753,827.645 343,825C342.247,822.355 344,817 344,817C344,817 342.413,815.755 342,814C341.587,812.245 342,811 342,811C342,811 340.561,809.264 341,807C341.736,803.208 345,804.957 345,804.957C345,804.957 345.826,803.702 344,802C342.174,800.298 338.495,801.342 338,800C336.748,796.601 337.715,797.623 334,793C330.234,788.313 331.807,794.68 328,790C323.667,784.674 332.257,784.893 327,782C319.355,777.792 320,773 320,773L318.537,773L318.537,684.289L346,684.289L347,688L355,693L354,684.289L370,684.289L376,718L375,722L380,725L379,729L382,732L382,747L385,748L385,753L384,754L380,754L377,755C377,755 373.248,756.39 374,759C374.752,761.61 379.468,763.342 378,767C376.295,771.247 371.735,768.05 370,770C368.265,771.95 370.435,773.602 370,775C369.565,776.398 364.945,777.529 369,782C373.055,786.471 371.747,787.448 371,789C370.253,790.552 366.073,793.322 368,795C371.032,797.641 367,802 367,802C367,802 369.032,803.407 369,808C368.981,810.694 369,812 369,812C369,812 370.775,811.268 373,815C375.225,818.732 374,822 374,822L372,830C372,830 374.109,830.486 374,832C373.891,833.514 373,835 373,835C373,835 375.274,834.531 375,837C374.726,839.469 374,843 374,843C374,843 375.595,845.565 376,848C376.405,850.435 376,851 376,851C376,851 378.946,852.411 379,854C379.054,855.589 377,858 377,858C377,858 381.121,858.37 381,861C380.879,863.63 380,867 380,867L381,874C381,874 384.045,875.796 384,877C383.902,879.595 381,879 381,879L391,935.289Z" style="fill:black;"/>
                <clipPath id="_clip3">
                    <path d="M391,935.289L369,935.289L363,896C363,896 360.586,897.233 360,894C359.632,891.97 359,891 359,891C359,891 355.802,893.321 356,885C356.126,879.677 357,878 357,878C357,878 355.467,878.796 355,875C354.664,872.269 356,872 356,872C356,872 352.308,876.143 352,854C351.957,850.903 353,851 353,851C353,851 350.863,850.671 351,846C351.072,843.553 352,842 352,842C352,842 351.007,842.978 350,841C348.993,839.022 350,838 350,838C350,838 346.573,836.993 347,834C347.427,831.007 349,829 349,829C349,829 343.753,827.645 343,825C342.247,822.355 344,817 344,817C344,817 342.413,815.755 342,814C341.587,812.245 342,811 342,811C342,811 340.561,809.264 341,807C341.736,803.208 345,804.957 345,804.957C345,804.957 345.826,803.702 344,802C342.174,800.298 338.495,801.342 338,800C336.748,796.601 337.715,797.623 334,793C330.234,788.313 331.807,794.68 328,790C323.667,784.674 332.257,784.893 327,782C319.355,777.792 320,773 320,773L318.537,773L318.537,684.289L346,684.289L347,688L355,693L354,684.289L370,684.289L376,718L375,722L380,725L379,729L382,732L382,747L385,748L385,753L384,754L380,754L377,755C377,755 373.248,756.39 374,759C374.752,761.61 379.468,763.342 378,767C376.295,771.247 371.735,768.05 370,770C368.265,771.95 370.435,773.602 370,775C369.565,776.398 364.945,777.529 369,782C373.055,786.471 371.747,787.448 371,789C370.253,790.552 366.073,793.322 368,795C371.032,797.641 367,802 367,802C367,802 369.032,803.407 369,808C368.981,810.694 369,812 369,812C369,812 370.775,811.268 373,815C375.225,818.732 374,822 374,822L372,830C372,830 374.109,830.486 374,832C373.891,833.514 373,835 373,835C373,835 375.274,834.531 375,837C374.726,839.469 374,843 374,843C374,843 375.595,845.565 376,848C376.405,850.435 376,851 376,851C376,851 378.946,852.411 379,854C379.054,855.589 377,858 377,858C377,858 381.121,858.37 381,861C380.879,863.63 380,867 380,867L381,874C381,874 384.045,875.796 384,877C383.902,879.595 381,879 381,879L391,935.289Z"/>
                </clipPath>
                <g clip-path="url(#_clip3)">
                    <path d="M362,896C362,896 365.12,894.018 370,889C374.88,883.982 378,878 378,878C378,878 380.126,878.593 382,879C383.874,879.407 385,878 385,878L377,804.957L366,802C366,802 364.006,804.059 362,806C359.994,807.941 358,809.789 358,809.789C358,809.789 350.808,809.964 349,809.789C344.828,809.385 345,804.957 345,804.957L341,803L337,817L356,896L362,897L362,896Z" style="fill:rgb(231,47,34);"/>
                    <path d="M323,774C323,774 332.294,779.844 333,779C333.706,778.156 334.864,777.676 336,779C337.136,780.324 337,781 337,781C337,781 338.629,775.765 337,774C334.283,771.056 338.017,765.492 336,764C333.983,762.508 330.729,765.215 331,758C331.271,750.785 334.569,757.43 337,752C338.176,749.372 340.602,751.005 342,752C347.288,755.765 345.447,752.212 348,750C350.553,747.788 353,751 353,751C353,751 355.458,747.728 358,751C360.05,753.638 360,755 360,755L366,755L369,742C369,742 370.676,744.135 373,747C377.32,752.327 377,755 377,755L381,758L391,752L391,684.289L318.537,684.289L318.537,773L321,776L323,774Z" style="fill:rgb(231,47,34);"/>
                </g>
            </g>
        </g>
    </g>
</svg>
