<?xml version="1.0" standalone="no"?>
<!DOCTYPE svg PUBLIC "-//W3C//DTD SVG 1.1//EN" "http://www.w3.org/Graphics/SVG/1.1/DTD/svg11.dtd">
<svg width="100%" height="100%" viewBox="0 0 250 250" version="1.1" xmlns="http://www.w3.org/2000/svg" xmlns:xlink="http://www.w3.org/1999/xlink" xml:space="preserve" style="fill-rule:evenodd;clip-rule:evenodd;stroke-linejoin:round;stroke-miterlimit:1.41421;">
    <g transform="matrix(1,0,0,1,-27.3223,-688.218)">
        <g id="Vax">
            <path d="M193,760C193,760 203.467,743.469 211,737C247.15,705.954 264,691 264,691C264,691 266.975,687.08 267,692C267.025,696.92 267.216,709.187 262,720C256.784,730.813 254.859,729.425 248,734C227.777,747.49 215,763 215,763L197,764L193,760Z" style="fill:black;"/>
            <clipPath id="_clip1">
                <path d="M193,760C193,760 203.467,743.469 211,737C247.15,705.954 264,691 264,691C264,691 266.975,687.08 267,692C267.025,696.92 267.216,709.187 262,720C256.784,730.813 254.859,729.425 248,734C227.777,747.49 215,763 215,763L197,764L193,760Z"/>
            </clipPath>
            <g clip-path="url(#_clip1)">
                <path d="M253,731C253,731 255.044,720.079 255,712C254.935,700.073 254,699 254,699L263,690L266,688.218L271,690L264,731L253,731Z" style="fill:rgb(231,47,34);"/>
            </g>
            <path d="M64,808C64,808 56.572,802.391 52,799C47.428,795.609 43.058,792.352 41,789C38.942,785.648 38.045,784.166 34,782C29.955,779.834 27.322,777 27.322,777L27.322,760C27.322,760 31.575,751.932 34,745C38.774,731.351 42,726 42,726C42,726 40.482,723.476 41,718C41.518,712.524 47,709 47,709C47,709 45.582,704.22 47,700C48.418,695.78 56,694 56,694C56,694 55.365,691.715 57,690C58.635,688.285 60,688.218 60,688.218L144,688.218C144,688.218 153.237,695.733 159,702C164.763,708.267 172.485,720.34 176,734C179.515,747.66 185.434,759.636 199,762C212.566,764.364 234.22,758.372 248,767C261.78,775.628 265.196,779.16 268,785C273.876,797.24 268,806 268,806C268,806 273.359,790.474 265,784C256.641,777.526 249,784 249,784C249,784 241.958,787.049 241,799C240.042,810.951 228,825 228,825L230,827C230,827 239.802,825.813 248,827C267.229,829.784 271,852.897 271,852.897C271,852.897 269.17,839.735 256,835C242.83,830.265 240,834 240,834L169.096,834L64,808Z" style="fill:rgb(231,47,34);"/>
            <path d="M60,805L34,816L63,920L169.096,921L189,822L157,805L60,805Z" style="fill:rgb(231,47,34);"/>
            <path d="M60,891C60,891 63.271,889.782 66,888C68.729,886.218 69,886 69,886C69,886 66.387,887.638 64,888C61.613,888.362 61,888 61,888C61,888 67.05,884.275 72,880C76.95,875.725 79,873 79,873C79,873 74.25,876.99 67,880C59.75,883.01 59,883 59,883C59,883 68.701,876.819 71,871C76.29,857.609 78,852 78,852C78,852 77.258,855.17 75,859C72.742,862.83 72,864 72,864C72,864 70.959,860.479 72,858C76.791,846.591 79,844 79,844C79,844 76.124,844.756 72,848C65.688,852.965 62,854 62,854C62,854 63.021,848.838 63,842C62.979,835.162 61,834 61,834C61,834 61.607,836.717 60,842C58.393,847.283 57,848 57,848C57,848 58.484,839.555 54,829C49.516,818.445 48,817 48,817C48,817 49.173,821.896 48,828C46.827,834.104 46,834 46,834C46,834 45.798,827.341 44,824C42.202,820.659 39.501,818.825 42,817C52.423,809.387 60,805 60,805C60,805 57.741,803.185 55,801C52.259,798.815 52,799 52,799C52,799 49.191,798.859 46,802C42.809,805.141 42,806 42,806C42,806 42.442,802.9 45,800C47.558,797.1 48,796 48,796C48,796 41.013,798.329 38,801C33.172,805.28 33,807 33,807C33,807 30.406,800.699 34,795C37.594,789.301 38,789 38,789C38,789 31.774,795.627 30,798C27.584,801.231 27.322,803 27.322,803L27.322,938.218L277.322,938.218L277.322,883C277.322,883 274.71,880.6 272,878C266.348,872.577 264,866 264,866L265,864C265,864 265.493,863.706 267,866C268.507,868.294 269,869 269,869C269,869 269.172,864.391 265,861C259.73,856.716 257,856 257,856C257,856 261.714,853.495 263,852C264.286,850.505 265,849 265,849C265,849 260.389,852.178 255,852C249.611,851.822 250,851 250,851C250,851 247.862,848.049 245,846C242.138,843.951 242,843 242,843C242,843 243.831,844.722 248,845C252.169,845.278 254,845 254,845C254,845 246.534,844.852 241,841C234.367,836.383 233,835 233,835C233,835 237.782,834.157 241,836C246.798,839.32 248,840 248,840C248,840 245.289,838.293 243,836C240.711,833.707 232.95,827.298 228,826C218.821,823.593 217,823 217,823C217,823 223.265,821.162 228,822C235.49,823.326 238,825 238,825C238,825 228.985,819.581 224,819C219.015,818.419 217,818 217,818C217,818 221.237,816.792 223,815C226.065,811.884 226,810 226,810C226,810 221.537,814.205 215,813.218C208.463,812.231 206,811 206,811L210,808C210,808 207.526,808.932 204,809C200.474,809.068 199,809 199,809C199,809 202.733,807.271 209,806C215.267,804.729 217,804 217,804C217,804 206.324,802.69 197,803C182.948,803.467 179,808 179,808C179,808 180.391,802.615 185,799C189.609,795.385 191,795 191,795C191,795 185.22,796.57 181,800C176.78,803.43 174,806 174,806C174,806 178.561,797.467 182,792C185.439,786.533 187,785 187,785C187,785 179.717,787.929 174,793C168.283,798.071 166,801 166,801C166,801 170.077,793.412 174,790C177.923,786.588 180,786 180,786C180,786 173.178,788.834 167,795C160.822,801.166 156,805 156,805C156,805 162.428,813.023 166,817C169.572,820.977 173.147,824.539 171,827C168.853,829.461 168,835 168,835C168,835 167.518,835.729 166,839C163.433,844.531 163,848 163,848C163,848 162.277,843.003 163,837C163.723,830.997 165,828 165,828C165,828 160.689,834.881 160,837C155.07,852.149 157.025,865 157.025,865C157.025,865 153.128,863.288 152.01,856C150.892,848.712 150,845 150,845C150,845 150.305,851.211 150,857C149.695,862.789 150,868 150,868C150,868 147.476,864.742 146.994,861C146.513,857.258 146,856 146,856C146,856 146.311,867.19 148,870C149.689,872.81 154,877 154,877C154,877 145.987,873.71 145,868C143.063,856.793 140,852.897 140,852.897C140,852.897 139.908,870.179 139,874C138.092,877.821 142,887 142,887C142,887 138.712,885.381 137,882C135.288,878.619 135,877 135,877C135,877 137.053,888.168 141,892C144.947,895.832 146.994,898 146.994,898C146.994,898 146.49,897.468 141,898C135.51,898.532 133,901 133,901C133,901 134.707,900.991 138,901C141.293,901.009 143,902 143,902C143,902 126.257,905.848 119,910C111.743,914.152 105.569,919.755 97,915C74.23,902.365 60,891 60,891Z" style="fill:black;"/>
            <g transform="matrix(1.07692,0,0,1.07692,-20.8462,-72.1538)">
                <circle cx="180" cy="912" r="13" style="fill:rgb(231,47,34);"/>
            </g>
            <path d="M70,838C70,838 65.331,819.669 64,811C62.669,802.331 62,797 62,797C62,797 58.255,798.501 51,781C44.281,764.793 38,749 38,749C38,749 35.943,744.438 38,746C40.057,747.562 58.821,758.619 63,762C67.179,765.381 69,767 69,767C69,767 68.776,771.92 71,779C73.224,786.08 75,792 75,792C75,792 74.273,780.303 74,771C73.727,761.697 73,758 73,758C73,758 75.902,756.062 77,755C78.098,753.938 78,753 78,753L75,755C75,755 75.394,753.355 79,751C82.606,748.645 85,745 85,745L78,749C78,749 79.472,745.375 82,744C84.528,742.625 85,742 85,742C85,742 83.223,740.116 81,739C78.777,737.884 77,738 77,738C77,738 76.147,735.373 80,736C83.853,736.627 85,738 85,738L81,733L83,732C83,732 79.937,730.038 79,728C78.063,725.962 76.859,722.969 79,724C81.141,725.031 85,727 85,727L83,723C83,723 79.853,719.627 84,722C88.147,724.373 97.166,728.07 102,729C106.834,729.93 110,731 110,731C110,731 101.8,740.389 100,748C98.2,755.611 97.641,761.626 100,769C102.359,776.374 106.891,784.55 111,789C115.109,793.45 117,795 117,795C117,795 101.853,780.467 102,767C102.147,753.533 104.108,746.166 109,739C113.892,731.834 116,731 116,731C116,731 118.288,731.086 124,731C129.712,730.914 131.627,728.553 136,730C140.373,731.447 144,734 144,734C144,734 145.652,730.283 149,728C152.348,725.717 155.751,721.9 157,726C160.842,738.613 162,742 162,742C162,742 164.343,741.138 166,739C167.657,736.862 168,736 168,736C168,736 169.48,735.172 169,738C168.52,740.828 164,750 164,750C164,750 164.789,753.587 164,757C163.211,760.413 159.806,763.718 160,772C160.194,780.282 163.279,792.366 157,805C150.721,817.634 144,828 144,828L144,837C144,837 142.564,837.298 140,839C137.436,840.702 135.466,843.583 128,845C120.534,846.417 116.516,846.751 110,850C103.484,853.249 103.333,854.019 96,851C81.101,844.867 70,838 70,838Z" style="fill:black;"/>
            <clipPath id="_clip2">
                <path d="M70,838C70,838 65.331,819.669 64,811C62.669,802.331 62,797 62,797C62,797 58.255,798.501 51,781C44.281,764.793 38,749 38,749C38,749 35.943,744.438 38,746C40.057,747.562 58.821,758.619 63,762C67.179,765.381 69,767 69,767C69,767 68.776,771.92 71,779C73.224,786.08 75,792 75,792C75,792 74.273,780.303 74,771C73.727,761.697 73,758 73,758C73,758 75.902,756.062 77,755C78.098,753.938 78,753 78,753L75,755C75,755 75.394,753.355 79,751C82.606,748.645 85,745 85,745L78,749C78,749 79.472,745.375 82,744C84.528,742.625 85,742 85,742C85,742 83.223,740.116 81,739C78.777,737.884 77,738 77,738C77,738 76.147,735.373 80,736C83.853,736.627 85,738 85,738L81,733L83,732C83,732 79.937,730.038 79,728C78.063,725.962 76.859,722.969 79,724C81.141,725.031 85,727 85,727L83,723C83,723 79.853,719.627 84,722C88.147,724.373 97.166,728.07 102,729C106.834,729.93 110,731 110,731C110,731 101.8,740.389 100,748C98.2,755.611 97.641,761.626 100,769C102.359,776.374 106.891,784.55 111,789C115.109,793.45 117,795 117,795C117,795 101.853,780.467 102,767C102.147,753.533 104.108,746.166 109,739C113.892,731.834 116,731 116,731C116,731 118.288,731.086 124,731C129.712,730.914 131.627,728.553 136,730C140.373,731.447 144,734 144,734C144,734 145.652,730.283 149,728C152.348,725.717 155.751,721.9 157,726C160.842,738.613 162,742 162,742C162,742 164.343,741.138 166,739C167.657,736.862 168,736 168,736C168,736 169.48,735.172 169,738C168.52,740.828 164,750 164,750C164,750 164.789,753.587 164,757C163.211,760.413 159.806,763.718 160,772C160.194,780.282 163.279,792.366 157,805C150.721,817.634 144,828 144,828L144,837C144,837 142.564,837.298 140,839C137.436,840.702 135.466,843.583 128,845C120.534,846.417 116.516,846.751 110,850C103.484,853.249 103.333,854.019 96,851C81.101,844.867 70,838 70,838Z"/>
            </clipPath>
            <g clip-path="url(#_clip2)">
                <path d="M97,778C97,778 95.475,774.715 111,774C115.293,773.802 118.053,773.921 121,777C121,777 120.864,778.967 116,779C103.755,779.083 97,778 97,778Z" style="fill:white;"/>
                <clipPath id="_clip3">
                    <path d="M97,778C97,778 95.475,774.715 111,774C115.293,773.802 118.053,773.921 121,777C121,777 120.864,778.967 116,779C103.755,779.083 97,778 97,778Z"/>
                </clipPath>
                <g clip-path="url(#_clip3)">
                    <g transform="matrix(1,0,0,1,-3,-2)">
                        <circle cx="107" cy="779" r="3" style="fill:rgb(231,47,34);"/>
                    </g>
                </g>
                <path d="M147,772C147,772 146.672,769.598 151,768C156.003,766.153 157,767 157,767C157,767 157.277,767.68 156,769C153.256,771.837 149.452,773.166 149,773C148.202,772.707 147,772 147,772Z" style="fill:white;"/>
                <clipPath id="_clip4">
                    <path d="M147,772C147,772 146.672,769.598 151,768C156.003,766.153 157,767 157,767C157,767 157.277,767.68 156,769C153.256,771.837 149.452,773.166 149,773C148.202,772.707 147,772 147,772Z"/>
                </clipPath>
                <g clip-path="url(#_clip4)">
                    <g transform="matrix(0.833333,0,0,0.833333,59.3333,122.333)">
                        <circle cx="107" cy="779" r="3" style="fill:rgb(231,47,34);"/>
                    </g>
                </g>
            </g>
        </g>
    </g>
</svg>
