<?xml version="1.0" standalone="no"?>
<!DOCTYPE svg PUBLIC "-//W3C//DTD SVG 1.1//EN" "http://www.w3.org/Graphics/SVG/1.1/DTD/svg11.dtd">
<svg width="100%" height="100%" viewBox="0 0 249 237" version="1.1" xmlns="http://www.w3.org/2000/svg" xmlns:xlink="http://www.w3.org/1999/xlink" xml:space="preserve" style="fill-rule:evenodd;clip-rule:evenodd;stroke-miterlimit:1.41421;">
    <g transform="matrix(1,0,0,1,-315.226,-708.853)">
        <g id="Vex">
            <path d="M432.962,945.051L315.226,945.051L315.226,861L421,871L440.226,916L432.962,945.051Z" style="fill:rgb(231,47,34);"/>
            <path d="M387,733.473L387,730L389,732L388,730L390,729L390,727L389,725L392,726L394,726L393,724L395,724L396,726L397,725L397,723L399,725L400,725L400,723L402,724L405,724L406,722L406,724L407,724L407,726L409.68,726L409.68,727L411,726L414,729L418,728L417,730L419,730L419,731L421,732L423,732L423,734C423,734 418.561,735.531 415,738C411.439,740.469 409.68,743 409.68,743L387,733.473Z" style="fill:black;"/>
            <path d="M463,719C463,719 467.277,711.713 471,710C474.723,708.287 476,709 476,709L475,711L476,711L478,710L478,711L479,711L481,710L482,710L480,713L483,712L483,715L486,714L487,715L485,718L488,718L488,722L478,724L463,719Z" style="fill:black;"/>
            <path d="M536,945.051C536,945.051 535.559,922.615 535,916C534.441,909.385 536.327,908.346 529,903C521.673,897.654 521.628,898.714 518,901C488.654,919.488 474,917 474,917L465.5,945.051L536,945.051Z" style="fill:rgb(231,47,34);"/>
            <path d="M523,742C523,742 527.617,740.626 533,738C534.852,737.097 537.562,735.053 543,731C549.498,726.157 552.804,725.795 556,730C562.182,738.135 560,746 560,746C560,746 563.587,749.824 564,755C565.137,769.249 549,782 549,782L551,782L551,784L552,784L552,786L554,786L557,788L555,788L555,792L556,792L556,793C556,793 558.773,794.865 560,796C561.227,797.135 561,798 561,798L558,797L559,799L557,800L557,802L559,804L559,808L560,808L559,809L561,813L560,814L560,818L561,818L560,819L561,820.68L562,823L560,823L562,827L561,827L561,829L559,828L558,828L559,831C559,831 557.98,829.347 559,831C560.02,832.653 560,834 560,834L558,834L557,839L555,837L555,839L554,840C554,840 555,841.773 555,844C555,846.227 556.021,847.701 558,849C559.979,850.299 560,852 560,852L559,852L559,853C559,853 559.506,853.943 561,856C563.316,859.189 563,860 563,860L560,858C560,858 560.433,860.399 560,863C559.567,865.601 557,868 557,868C557,868 558.351,869.747 556,871C553.649,872.253 553,872 553,872L552,875L551,874L550,874L549,878L548,876L548,873L547,872L546,874L545,876L545,871L543,871L542,873L540,876L539,872L536,870L535,874L534,873L532,873C532,873 531.857,872.33 532,875C532.143,877.67 532,879 532,879C532,879 531.915,877.347 531,876C530.085,874.653 529,875 529,875L529,878L528,879C528,879 529.009,881.141 532,882C534.991,882.859 536,882.866 536,882.866C536,882.866 535.149,884.272 533,884C530.851,883.728 529,882.866 529,882.866C529,882.866 529.001,884.37 533,887C538.522,890.631 538,893 538,893L534,889L533,890L535,891L533,892L534,894C534,894 537.178,894.538 540,895C545.396,895.882 545,898 545,898C545,898 544.746,897.911 542,898C539.254,898.089 539,899.127 539,899.127C539,899.127 539.342,899.221 543,900C546.658,900.779 548,903 548,903C548,903 538.985,900.672 545,905C551.015,909.328 550,911 550,911C550,911 548.861,908.825 547,908C545.139,907.175 544,907 544,907C544,907 545.591,908.632 548,911C550.409,913.368 550,915 550,915L548,914L550,916L548,916L550,919L547,919C547,919 548.817,920.223 552,923C555.183,925.777 553.867,927.892 557,928C560.133,928.108 561,928 561,928C561,928 560.127,928.898 558,929C555.873,929.102 553.483,929.109 557,931C560.517,932.891 562,935 562,935C562,935 556.107,931.743 559,936C561.893,940.257 562,943 562,943C562,943 557.391,937.556 559,941C560.609,944.444 561,944 561,944C561,944 558.219,942.766 559,945.051C559.122,945.408 456.563,945.051 456.563,945.051L428,790L456.563,731L496,725L511,731L518,740L523,742Z" style="fill:black;"/>
            <clipPath id="_clip1">
                <path d="M523,742C523,742 527.617,740.626 533,738C534.852,737.097 537.562,735.053 543,731C549.498,726.157 552.804,725.795 556,730C562.182,738.135 560,746 560,746C560,746 563.587,749.824 564,755C565.137,769.249 549,782 549,782L551,782L551,784L552,784L552,786L554,786L557,788L555,788L555,792L556,792L556,793C556,793 558.773,794.865 560,796C561.227,797.135 561,798 561,798L558,797L559,799L557,800L557,802L559,804L559,808L560,808L559,809L561,813L560,814L560,818L561,818L560,819L561,820.68L562,823L560,823L562,827L561,827L561,829L559,828L558,828L559,831C559,831 557.98,829.347 559,831C560.02,832.653 560,834 560,834L558,834L557,839L555,837L555,839L554,840C554,840 555,841.773 555,844C555,846.227 556.021,847.701 558,849C559.979,850.299 560,852 560,852L559,852L559,853C559,853 559.506,853.943 561,856C563.316,859.189 563,860 563,860L560,858C560,858 560.433,860.399 560,863C559.567,865.601 557,868 557,868C557,868 558.351,869.747 556,871C553.649,872.253 553,872 553,872L552,875L551,874L550,874L549,878L548,876L548,873L547,872L546,874L545,876L545,871L543,871L542,873L540,876L539,872L536,870L535,874L534,873L532,873C532,873 531.857,872.33 532,875C532.143,877.67 532,879 532,879C532,879 531.915,877.347 531,876C530.085,874.653 529,875 529,875L529,878L528,879C528,879 529.009,881.141 532,882C534.991,882.859 536,882.866 536,882.866C536,882.866 535.149,884.272 533,884C530.851,883.728 529,882.866 529,882.866C529,882.866 529.001,884.37 533,887C538.522,890.631 538,893 538,893L534,889L533,890L535,891L533,892L534,894C534,894 537.178,894.538 540,895C545.396,895.882 545,898 545,898C545,898 544.746,897.911 542,898C539.254,898.089 539,899.127 539,899.127C539,899.127 539.342,899.221 543,900C546.658,900.779 548,903 548,903C548,903 538.985,900.672 545,905C551.015,909.328 550,911 550,911C550,911 548.861,908.825 547,908C545.139,907.175 544,907 544,907C544,907 545.591,908.632 548,911C550.409,913.368 550,915 550,915L548,914L550,916L548,916L550,919L547,919C547,919 548.817,920.223 552,923C555.183,925.777 553.867,927.892 557,928C560.133,928.108 561,928 561,928C561,928 560.127,928.898 558,929C555.873,929.102 553.483,929.109 557,931C560.517,932.891 562,935 562,935C562,935 556.107,931.743 559,936C561.893,940.257 562,943 562,943C562,943 557.391,937.556 559,941C560.609,944.444 561,944 561,944C561,944 558.219,942.766 559,945.051C559.122,945.408 456.563,945.051 456.563,945.051L428,790L456.563,731L496,725L511,731L518,740L523,742Z"/>
            </clipPath>
            <g clip-path="url(#_clip1)">
                <path d="M465.5,757C465.5,757 469.205,750.867 476,751C482.795,751.133 484,752 484,752C484,752 482.32,751.328 480,754C477.68,756.672 473.638,758.49 470,758C466.362,757.51 465.5,757 465.5,757Z" style="fill:white;"/>
                <path d="M506,742C506,742 509.436,738.164 512,739C514.564,739.836 514,741 514,741C514,741 513.093,740.885 513,743C512.907,745.115 507,745 507,745L506,742Z" style="fill:white;"/>
            </g>
            <g>
                <path d="M530,852.015C530,852.015 529.979,849.22 530,848C530.021,846.78 530.393,845.326 532,848C533.607,850.674 533.831,850.313 533,851C531.165,852.517 530,852.015 530,852.015Z" style="fill:white;"/>
                <path d="M538,848C538,848 537.786,847.211 538,846C538.214,844.789 539.128,844.184 540,845C540.872,845.816 542.122,847.64 541,848C539.878,848.36 538,848 538,848Z" style="fill:white;"/>
                <path d="M541.445,846C541.445,846 541.314,843.868 542,843C542.686,842.132 543.808,844.035 544,844.627C544.192,845.218 544.868,845.822 544,846C543.132,846.178 541.445,846 541.445,846Z" style="fill:white;"/>
                <path d="M545,845C545,845 545.831,841.953 546,841C546.169,840.047 547.533,842.476 548,844C548.467,845.524 547.71,844.839 547,845C546.29,845.161 545,845 545,845Z" style="fill:white;"/>
                <path d="M548.144,842.777C548.144,842.777 547.849,841.404 548.144,841C548.439,840.596 549.082,840.904 549,837C548.923,833.339 547.609,826.316 550,831C553.074,837.022 553.425,842.728 552,842.928C549.661,843.256 548.144,842.777 548.144,842.777Z" style="fill:white;"/>
                <path d="M534,850C534,850 534.666,847.574 535,847C535.334,846.426 536.337,847.101 537,848C537.663,848.899 537.115,849.687 536,850C534.885,850.313 534,850 534,850Z" style="fill:white;"/>
                <path d="M521,849C521,849 523.035,849.348 523,841C522.976,835.308 523.292,833.69 526,840C529.267,847.614 530.15,851.988 529,852.095C522.794,852.671 521,849 521,849Z" style="fill:white;"/>
            </g>
            <g>
                <path d="M527,776C527,776 530.01,780.382 530,785C529.986,791.44 529.995,794.892 532,790C536.926,777.983 536,772 536,772C536,772 532.029,773.973 527,776Z" style="fill:white;"/>
                <g transform="matrix(1,0,0,1,-2,0)">
                    <path d="M548,766C548,766 548.111,768.825 549,769.023C549.889,769.221 550,769.036 550,769.036C550,769.036 551.505,769.196 552,774C553.061,784.288 550.428,788.612 556,780C561.092,772.13 560,766 560,766C560,766 558.03,763.61 557,763C555.97,762.39 555.216,763.134 554,763C552.784,762.866 553.104,763.983 548,766Z" style="fill:white;stroke-width:2px;stroke:black;"/>
                </g>
                <rect x="536.736" y="770.847" width="2.266" height="2.785" style="fill:white;"/>
                <g transform="matrix(1,0,0,1,-1,0)">
                    <path d="M544,768C544,768 543.753,770.858 544,770.932C545.56,771.399 546.259,770.971 546,770C545.766,769.122 546.833,769.356 547,769.023C547.153,768.718 547.024,768.648 547,768C546.95,766.663 547,767 547,767C547,767 546.008,767.275 544,768Z" style="fill:white;"/>
                </g>
                <g transform="matrix(1,0,0,1,-1,0.0231284)">
                    <path d="M540,770C540,770 540.265,771.858 541,772.133C541.312,772.249 542,772 542,772C542,772 542.47,771.597 542,771.084C541.835,770.904 542.695,771.458 543,770.932C543.325,770.373 543,769 543,769C543,769 541.447,769.217 540,770Z" style="fill:white;"/>
                </g>
            </g>
            <path d="M410,743C410,743 412.505,739.182 416,737C419.495,734.818 423,733.473 423,733.473C423,733.473 422.028,724.897 440.226,725C454.322,725.08 449.163,726.726 456,724C462.837,721.274 464.184,718.344 474,720C483.816,721.656 480.311,722.24 488,722C495.689,721.76 505.745,725.913 510,729C514.255,732.087 511.454,732.843 518,738C522.734,741.729 523,742 523,742L519,742C519,742 510.732,734.728 506,731C499.653,725.999 496,727 496,727C496,727 497.727,731.814 501,736C506.078,742.495 507.237,743.445 511,743C517.229,742.263 518,743 518,743C518,743 511.305,746.716 504,748C493.437,749.857 493.566,751.928 482,741C476.529,735.831 469,736 469,736C469,736 469.131,739.639 467,743C464.869,746.361 463,747 463,747C463,747 460.981,751.338 461,760C461.026,771.865 459.198,773.009 473,784C486.802,794.991 491.222,798.345 495,801C498.715,803.611 501.461,805.719 492,806C446.529,807.35 442,798 442,798L428,791L408,750L410,743Z" style="fill:rgb(231,47,34);"/>
            <path d="M423,945.051C423,945.051 419.606,939.965 419,934C418.142,925.553 419,924 419,924C419,924 417.956,924.192 417,927C415.36,931.814 416,934 416,934C416,934 413.314,924.588 415,916C418.221,899.591 422,896 422,896C422,896 419.976,896.575 418,900C414.981,905.233 415,908 415,908C415,908 413.583,899.011 416,894C419.438,886.872 421,886 421,886C421,886 418.949,885.149 417,888C413.234,893.51 414,895 414,895C414,895 413.41,892.087 415,888C416.59,883.913 415.79,880.031 415,878C414.21,875.969 413.021,875.635 413,878C412.979,880.365 413,881 413,881C413,881 411.788,873.857 411,877C410.212,880.143 410,881 410,881C410,881 401.451,869.143 399,867C396.549,864.857 399.685,857.983 400,855C400.315,852.017 403,852 403,852L466,878L456,920L440.226,945.051L423,945.051Z" style="fill:black;"/>
            <path d="M436,928L436,925C436,925 435.101,925.22 433,923C429.893,919.718 433,919 433,919C433,919 432.795,918.703 432,917C431.205,915.297 432,915 432,915C432,915 430.456,912.853 431,911C433.994,900.794 449,900 449,900C449,900 449.654,902.064 449,903C448.346,903.936 449,912 449,912C449,912 445.711,923.382 443,925C440.289,926.618 436,928 436,928Z" style="fill:black;"/>
            <path d="M350,814C350,814 347.741,809.147 347,806C346.259,802.853 343.119,802.104 340,800.022C336.881,797.939 338,792 338,792C338,792 331.023,788.819 334,783C338.269,774.657 336.318,770.62 338,769C339.682,767.38 340,768 340,768C340,768 338.649,765.494 340,763C341.351,760.506 342.115,762.781 342,759C341.885,755.219 342.389,751.66 345,750C347.611,748.34 350.426,746.411 354,743C363.615,733.825 385.358,731.552 395,735C419.732,743.843 410.183,746.227 416,752C427.774,763.686 428,778 428,778C428,778 432.251,784.655 436,787C439.749,789.345 443,805 443,805C443,805 451.99,810.24 452,821C452.01,831.76 469,866 469,866C469,866 461.244,889.769 459,892C455.665,895.314 456.594,896.84 449,899C435.24,902.914 432,909 432,909L432,903C432,903 426.28,899.847 427,895C427.993,888.32 430,888 430,888C430,888 425.373,886.85 425,878C424.739,871.805 426,872 426,872C426,872 426.224,872.058 423,870C419.776,867.942 420,866 420,866C420,866 416.211,867.411 412,863C407.789,858.589 409.68,857 409.68,857C409.68,857 409.527,858.574 405,855C399.235,850.448 397,847 397,847L369,837L350,814Z" style="fill:rgb(231,47,34);"/>
            <path d="M436,928C436,928 433.335,930.269 432,933C429.28,938.565 430,945.051 430,945.051L438,945.051L440.226,926L436,928Z" style="fill:rgb(231,47,34);"/>
            <path d="M422,776C423.717,782.589 424,787 424,787C424,787 430.152,778.774 430.884,775C431.922,769.65 433.083,768.28 428,771C424.675,772.779 422,776 422,776Z" style="fill:black;"/>
            <path d="M322,824C322,824 320.141,820.028 318,815C315.859,809.972 315.226,809 315.226,809L315.226,795L317,797C317,797 317.782,796.407 319,796C320.218,795.593 321,796 321,796L315.226,783L315.226,776L325,795L330,795L315.226,761L315.226,733.473L317,735L321,733.473L323,733.473L323,731L325,731L325,732L326,733L329,733L332,729L334,727L334,728L335,728L338,724L339,731L341,733L342,735.473L343,739L344,742L345,749L346,751L343,753L341,751L337.196,744L332,747L336,755L340,764L341,769L339,769L332,755L328.079,749.053L324.5,750L327,758L336,779L336,783L334,783L324,758L318,753L318,761L333.261,795L338,795L354,811L353,820.051L330,825L322,824Z" style="fill:rgb(231,47,34);"/>
            <path d="M332,753L324.5,734L328,740L332,750L332,753Z" style="fill:black;"/>
            <path d="M342,751L332,730L329,728L329,729L326,729L327,732L326,733.473L335,754L337,750L342,751Z" style="fill:black;"/>
            <g transform="matrix(1,0,0,1,-1,0)">
                <path d="M344,749L335,730L336,727L344,743.5L344,748" style="fill:black;"/>
            </g>
            <path d="M332,755L323,733.473L320,732L320,731L319,730L319,732L317,732L318,734L317,736L327,758L327,753L332,755Z" style="fill:black;"/>
            <path d="M324,758L315.226,740L315.226,755L319,762L319,756L324,758Z" style="fill:black;"/>
            <path d="M345,750L346,742L345,740L345,738L342,732L338,724L335,728L345,750Z" style="fill:black;"/>
            <path d="M469,945.051L430,945.051C430,945.051 429.649,942.324 430.884,940C434.351,933.474 436.825,934.187 451,906C461.654,884.814 463,870 463,870C463,870 462.859,869.503 462,868C461.141,866.497 461,865 461,865L458,863L458,860C458,860 453.033,861.011 452,857C450.967,852.989 452,852 452,852C452,852 450.22,851.498 447,853C443.78,854.502 441.424,856.965 440.226,853C439.027,849.035 440.087,849 440.087,849C440.087,849 439.289,849.399 437.533,845.602C435.696,841.629 436.53,840.986 436.53,840.986C436.53,840.986 435.516,839.831 435.07,838.31C434.385,835.98 435.07,834.845 435.07,834.845C435.07,834.845 438.059,830.676 442.708,826.781C447.933,822.404 452,821 452,821C452,821 453.359,818.588 460,827C476.608,848.037 482,863 482,863C482,863 483.711,862.602 483,868C482.626,870.837 481,871 481,871C481,871 478.77,890.547 477,905C474.516,925.283 469,945.051 469,945.051Z" style="fill:black;"/>
            <path d="M472,945.051C472,945.051 466.977,922.244 454,866.117C435.624,786.637 428,751 428,751L428,746L430.884,750C430.884,750 435.866,771.576 447,820.051C458.134,868.527 476,945.051 476,945.051L472,945.051Z" style="fill:black;"/>
            <path d="M422,756C422,756 421.815,747.613 422,737C422.102,731.159 423,724 423,724C423,724 427.075,731.916 431,739C436.647,749.192 438,752 438,752C438,752 436.809,751.912 434,751C431.191,750.088 429,749 429,749C429,749 428.042,749.872 426,752C423.958,754.128 422,756 422,756Z" style="fill:black;"/>
            <path d="M442,855C442,855 439.662,857.294 445,863C452.068,870.556 461,862 461,862L456,848L449.29,822.304L442.549,826.725L442,855Z" style="fill:black;"/>
            <path d="M358,814C358,814 354.744,807.832 354,806C353.256,804.168 353,803 353,803C353,803 351.73,805.77 349,800C337.219,775.101 337,774 337,774C337,774 334.303,768.777 338,771C350.022,778.229 352,783 352,783C352,783 356.759,770.051 370,767C383.241,763.949 380.314,764.843 385,765C389.686,765.157 390.565,767.372 398,769C410.367,771.707 409.696,779.338 409,782C404.269,800.082 402.669,799.62 402,806C400.696,818.437 406,822 406,822C406,822 402.795,816.208 404,810C405.205,803.792 407,803 407,803C407,803 406.974,806.401 408,813C408.982,819.313 408,822 408,822C408,822 407.014,824.571 404,829C403.579,829.618 402.521,839.102 402,848C401.077,863.756 402,869 402,869C402,869 402.018,864.391 403,861.609C403.982,858.827 402.498,867.689 406,872C412.203,879.636 409.156,879.554 407,882C397.778,892.461 395,880 395,880L377,866L357,821L358,814Z" style="fill:black;"/>
            <clipPath id="_clip2">
                <path d="M358,814C358,814 354.744,807.832 354,806C353.256,804.168 353,803 353,803C353,803 351.73,805.77 349,800C337.219,775.101 337,774 337,774C337,774 334.303,768.777 338,771C350.022,778.229 352,783 352,783C352,783 356.759,770.051 370,767C383.241,763.949 380.314,764.843 385,765C389.686,765.157 390.565,767.372 398,769C410.367,771.707 409.696,779.338 409,782C404.269,800.082 402.669,799.62 402,806C400.696,818.437 406,822 406,822C406,822 402.795,816.208 404,810C405.205,803.792 407,803 407,803C407,803 406.974,806.401 408,813C408.982,819.313 408,822 408,822C408,822 407.014,824.571 404,829C403.579,829.618 402.521,839.102 402,848C401.077,863.756 402,869 402,869C402,869 402.018,864.391 403,861.609C403.982,858.827 402.498,867.689 406,872C412.203,879.636 409.156,879.554 407,882C397.778,892.461 395,880 395,880L377,866L357,821L358,814Z"/>
            </clipPath>
            <g clip-path="url(#_clip2)">
                <path d="M363,797C363,797 364.099,797.026 369,797C376.454,796.961 376,800 376,800C376,800 373.017,800.049 369,800C362.792,799.925 363,797 363,797Z" style="fill:white;"/>
                <clipPath id="_clip3">
                    <path d="M363,797C363,797 364.099,797.026 369,797C376.454,796.961 376,800 376,800C376,800 373.017,800.049 369,800C362.792,799.925 363,797 363,797Z"/>
                </clipPath>
                <g clip-path="url(#_clip3)">
                    <g transform="matrix(1.25,0,0,1.25,-93,-200.25)">
                        <circle cx="370" cy="799" r="2" style="fill:rgb(231,47,34);"/>
                    </g>
                </g>
                <path d="M393,799C393,799 394.258,796.164 399,796C403.742,795.836 405,796 405,796C405,796 405.306,798.988 399,799C394.559,799.008 393,799 393,799Z" style="fill:white;"/>
                <clipPath id="_clip4">
                    <path d="M393,799C393,799 394.258,796.164 399,796C403.742,795.836 405,796 405,796C405,796 405.306,798.988 399,799C394.559,799.008 393,799 393,799Z"/>
                </clipPath>
                <g clip-path="url(#_clip4)">
                    <g transform="matrix(1.25,0,0,1.25,-64,-201.25)">
                        <circle cx="370" cy="799" r="2" style="fill:rgb(231,47,34);"/>
                    </g>
                </g>
            </g>
            <path d="M315.226,833L317,833C317,833 315.527,828.389 317,824C319.486,816.59 320,818 320,818C320,818 319.08,820.242 319,825C318.92,829.758 319,831 319,831C319,831 321.714,822.832 326,815C333.16,801.916 335,803 335,803C335,803 332.682,805.059 331,810C329.318,814.941 329,816 329,816C329,816 329.811,814.941 332,812C334.189,809.059 335,809 335,809C335,809 333.182,811.557 332,814C330.818,816.443 331,817 331,817C331,817 335.371,811.909 339,809C342.629,806.091 344,806 344,806C344,806 342.412,806.732 339,810C335.588,813.268 335,815 335,815C335,815 339.82,811.141 345,808C350.18,804.859 351,805 351,805C351,805 349.903,805.678 346,810C342.097,814.322 341,816 341,816C341,816 344.737,813.762 348,812C351.263,810.238 352,811 352,811C352,811 351.145,810.905 348,813C344.855,815.095 345,816 345,816C345,816 347.859,814.057 352,813C356.141,811.943 357,813 357,813C357,813 355.892,813.462 354,814C352.108,814.538 351,815 351,815C351,815 355.118,814.144 357,814C358.882,813.856 361,814 361,814L380,846C380,846 392.421,871.365 395,876C399.638,884.336 400,889 400,889C400,889 399.67,887.406 396,883C391.588,877.704 390,877 390,877C390,877 391.42,880.25 393,885C395.957,893.892 395,896 395,896C395,896 395.165,894.35 393,891C390.835,887.65 389,885 389,885C389,885 394.07,896.9 394,906C393.888,920.621 389.123,922.632 388,930C386.877,937.368 386,945.051 386,945.051L385,945.051C385,945.051 385.266,943.99 385,940C384.734,936.01 385,934 385,934C385,934 384.428,936.58 383,940C381.572,943.42 381,945.051 381,945.051L337,945.051C337,945.051 332.629,929.352 332,922C330.409,903.413 329.868,891.326 328,880C326.132,868.674 326,865 326,865L324,868C324,868 323.433,875.455 324,882C324.567,888.545 325,893 325,893C325,893 323.678,891.808 323,888C322.322,884.192 322,881 322,881C322,881 320.962,885.404 320,888C319.038,890.596 316.828,890.946 318,894C320.05,899.344 320,901 320,901C320,901 317.871,897.827 317,896C316.129,894.173 315.226,892 315.226,892L315.226,833Z" style="fill:black;"/>
            <clipPath id="_clip5">
                <path d="M315.226,833L317,833C317,833 315.527,828.389 317,824C319.486,816.59 320,818 320,818C320,818 319.08,820.242 319,825C318.92,829.758 319,831 319,831C319,831 321.714,822.832 326,815C333.16,801.916 335,803 335,803C335,803 332.682,805.059 331,810C329.318,814.941 329,816 329,816C329,816 329.811,814.941 332,812C334.189,809.059 335,809 335,809C335,809 333.182,811.557 332,814C330.818,816.443 331,817 331,817C331,817 335.371,811.909 339,809C342.629,806.091 344,806 344,806C344,806 342.412,806.732 339,810C335.588,813.268 335,815 335,815C335,815 339.82,811.141 345,808C350.18,804.859 351,805 351,805C351,805 349.903,805.678 346,810C342.097,814.322 341,816 341,816C341,816 344.737,813.762 348,812C351.263,810.238 352,811 352,811C352,811 351.145,810.905 348,813C344.855,815.095 345,816 345,816C345,816 347.859,814.057 352,813C356.141,811.943 357,813 357,813C357,813 355.892,813.462 354,814C352.108,814.538 351,815 351,815C351,815 355.118,814.144 357,814C358.882,813.856 361,814 361,814L380,846C380,846 392.421,871.365 395,876C399.638,884.336 400,889 400,889C400,889 399.67,887.406 396,883C391.588,877.704 390,877 390,877C390,877 391.42,880.25 393,885C395.957,893.892 395,896 395,896C395,896 395.165,894.35 393,891C390.835,887.65 389,885 389,885C389,885 394.07,896.9 394,906C393.888,920.621 389.123,922.632 388,930C386.877,937.368 386,945.051 386,945.051L385,945.051C385,945.051 385.266,943.99 385,940C384.734,936.01 385,934 385,934C385,934 384.428,936.58 383,940C381.572,943.42 381,945.051 381,945.051L337,945.051C337,945.051 332.629,929.352 332,922C330.409,903.413 329.868,891.326 328,880C326.132,868.674 326,865 326,865L324,868C324,868 323.433,875.455 324,882C324.567,888.545 325,893 325,893C325,893 323.678,891.808 323,888C322.322,884.192 322,881 322,881C322,881 320.962,885.404 320,888C319.038,890.596 316.828,890.946 318,894C320.05,899.344 320,901 320,901C320,901 317.871,897.827 317,896C316.129,894.173 315.226,892 315.226,892L315.226,833Z"/>
            </clipPath>
            <g clip-path="url(#_clip5)">
                <g transform="matrix(1.20778,-0.34242,0.287163,1.01288,-323.694,104.589)">
                    <ellipse cx="363" cy="844.5" rx="7" ry="11.5" style="fill:rgb(231,47,34);"/>
                </g>
            </g>
        </g>
    </g>
</svg>
